<svg width="331" height="88" viewBox="0 0 331 88" fill="none" xmlns="http://www.w3.org/2000/svg">
<path d="M63.7048 28.8256V28.8045C63.6627 27.2214 63.5087 25.6523 63.2495 24.1392V24.1042C63.2075 23.9081 63.1725 23.7049 63.1235 23.4527C63.1235 23.4527 63.0955 23.3266 63.0885 23.2916C63.0535 23.1165 63.0114 22.9344 62.9694 22.7592L62.9484 22.6752C62.9344 22.6051 62.9204 22.5351 62.8994 22.465C62.8714 22.3459 62.8434 22.2339 62.8153 22.1148L62.7943 22.0237C62.7593 21.8906 62.7313 21.7645 62.6963 21.6314C62.6823 21.5684 62.6613 21.4983 62.6403 21.4353L62.5842 21.2391C62.5562 21.1481 62.5352 21.057 62.5072 20.966C62.5072 20.9519 62.4792 20.8749 62.4792 20.8679C62.4792 20.8679 62.4582 20.7908 62.4512 20.7628C61.9259 18.9205 61.0995 17.0081 60 15.0818C57.892 11.4602 55.5809 9.15553 54.0122 7.86661C52.5345 6.65475 51.0918 5.81415 50.0483 5.56897C50.0063 5.56197 49.9713 5.54095 49.9362 5.51293C46.3295 2.22058 42.1556 1.73023 39.9845 1.73023C39.6134 1.73023 39.2492 1.74424 38.913 1.77226C38.913 1.77226 38.899 1.77226 38.892 1.77226C38.843 1.77226 38.794 1.75825 38.7519 1.72323C36.5529 0.16812 33.4434 0 32.2108 0C32.0638 0 31.9447 0 31.8607 0H31.8467C31.7556 0 31.6366 0 31.4965 0C30.2639 0 27.1475 0.16812 24.9554 1.72323C24.9134 1.75125 24.8644 1.77226 24.8153 1.77226C24.8153 1.77226 24.8013 1.77226 24.7943 1.77226C24.4582 1.74424 24.094 1.73023 23.7228 1.73023C21.5588 1.73023 17.3848 2.22058 13.7781 5.50593C13.7501 5.53395 13.7081 5.55496 13.6661 5.56197C12.6576 5.79313 11.1729 6.65475 9.70219 7.86661C8.13345 9.15553 5.82235 11.4532 3.71435 15.0888C2.63584 16.9731 1.81645 18.8785 1.2842 20.7488L1.22117 20.9309C1.22117 20.9449 1.21417 20.959 1.20716 20.966C0.0936371 24.7487 -0.249525 28.9026 0.177677 33.3158C0.506833 36.6642 1.29821 40.1316 2.41874 43.0807C2.41874 43.0877 2.41874 43.0947 2.42574 43.1087C2.43274 43.1438 2.44675 43.1718 2.45376 43.1998C2.47477 43.2559 2.50978 43.3539 2.50978 43.3539C2.50978 43.3679 2.51679 43.3819 2.52379 43.396C2.59382 43.5921 2.61483 43.6411 2.66385 43.7532L2.71988 43.9003C3.99448 47.0666 7.66422 52.0471 13.631 58.7019C13.631 58.7089 13.8972 59.0031 14.0302 59.1432C14.0302 59.1432 14.3384 59.4794 14.4574 59.6195C14.4574 59.6195 14.7866 59.9768 14.8986 60.1099L15.3469 60.5932L15.7951 61.0836L16.2503 61.5739L16.7055 62.0643L17.1607 62.5476L17.6159 63.031L18.0712 63.5143L18.5264 63.9906L18.9816 64.467L19.4368 64.9363L19.885 65.4056L20.3892 65.924C21.5868 67.1569 22.8194 68.4108 24.045 69.6367L27.4276 72.964C27.4276 72.964 27.4976 73.0201 27.5396 73.0481V75.9832C27.5396 76.3194 27.7848 76.5926 28.0999 76.6487L29.1644 80.4524C29.2414 80.7396 29.5006 80.9357 29.8017 80.9357H34.0597C34.3539 80.9357 34.613 80.7396 34.697 80.4524L35.7545 76.6487C36.0837 76.5996 36.3358 76.3194 36.3358 75.9832V72.922C38.0796 71.2338 41.5533 67.8224 45.4681 63.6964C45.4681 63.6964 45.7903 63.3532 45.9514 63.1851L46.4556 62.6527C46.6097 62.4846 46.9458 62.1343 46.9458 62.1343C47.0999 61.9662 47.261 61.7981 47.4151 61.63L47.4291 61.6089C47.5831 61.4408 47.7372 61.2727 47.8913 61.1116L47.9193 61.0766C48.0734 60.9084 48.2274 60.7403 48.3815 60.5722L48.4025 60.5512C48.5566 60.3831 48.7107 60.2149 48.8577 60.0538L48.8857 60.0258C49.0398 59.8577 49.1939 59.6896 49.348 59.5145L49.369 59.4934C49.523 59.3253 49.6771 59.1502 49.8382 58.9751L49.8522 58.9611C50.0063 58.7859 50.1604 58.6178 50.3144 58.4497L50.3284 58.4357C50.4825 58.2606 50.6366 58.0854 50.7906 57.9103C50.7906 57.9103 50.8047 57.8893 50.8117 57.8893C54.9576 53.21 57.941 49.3782 59.6709 46.4922C59.93 46.0508 60.1611 45.6305 60.3712 45.2383L60.4132 45.1542C60.4552 45.0772 60.4972 44.9931 60.5323 44.916C60.5323 44.909 60.6093 44.7479 60.6163 44.7409C60.6443 44.6919 60.6653 44.6358 60.6933 44.5798C60.7284 44.5098 60.7564 44.4397 60.7914 44.3626C60.8054 44.3346 60.8334 44.2646 60.8474 44.2436C60.8614 44.2155 60.9244 44.0684 60.9244 44.0684C60.9455 44.0124 60.9735 43.9634 60.9945 43.9003L61.0505 43.7602C61.0925 43.6551 61.1135 43.5991 61.1836 43.41C61.2046 43.3539 61.2326 43.2909 61.2606 43.1998C62.01 41.2524 63.7538 36.0127 63.7258 29.5681C63.7258 29.3369 63.7258 29.0988 63.7118 28.8396L63.7048 28.8256Z" fill="white"/>
<path d="M3.44801 42.8506C3.53905 43.1028 3.53905 43.0958 3.6371 43.327C4.7086 46.0239 7.53794 49.9047 10.9976 54.0376C15.1225 58.9971 20.0879 64.2159 23.9187 68.0686C25.3474 69.5116 26.643 70.8006 27.7425 71.8793C27.7425 71.8793 27.7495 71.8863 27.7565 71.8933C27.8406 71.9774 27.9176 72.0545 28.0016 72.1315H28.0437L31.7414 72.1455L35.2501 72.1595H35.4812C41.49 66.3874 54.166 53.6243 58.7952 45.9679C59.0473 45.5546 59.2714 45.1483 59.4675 44.77C59.4885 44.728 59.5096 44.6929 59.5306 44.6509C59.5656 44.5879 59.5936 44.5248 59.6216 44.4618C59.6496 44.4057 59.6776 44.3567 59.6987 44.3007C59.7267 44.2516 59.7477 44.1956 59.7757 44.1466C59.8037 44.0835 59.8387 44.0135 59.8667 43.9504C59.8877 43.9084 59.9017 43.8734 59.9228 43.8313C59.9718 43.7263 60.0138 43.6212 60.0558 43.5231C60.0698 43.4951 60.0768 43.4671 60.0838 43.4461C60.1189 43.362 60.1399 43.32 60.1609 43.2639C60.2029 43.1378 60.2309 43.0398 60.2239 43.0328C62.2058 37.9822 63.9917 29.2679 61.4915 21.0441C61.4915 21.0441 55.4827 4.74345 31.9725 4.74345C10.9836 4.02894 2.31347 20.939 2.31347 20.939V21.3593L2.20842 21.2402C-0.172706 29.331 1.5291 37.8701 3.44801 42.8436C3.44801 42.8436 3.44801 42.8436 3.44801 42.8506Z" fill="white"/>
<mask id="mask0_1_2" style="mask-type:luminance" maskUnits="userSpaceOnUse" x="1" y="5" width="30" height="68">
<path d="M2.32065 20.9308V21.3511L2.2156 21.232C-0.165525 29.3228 1.53628 37.8619 3.45519 42.8354C3.45519 42.8354 3.45519 42.8354 3.45519 42.8424C3.54623 43.0946 3.54623 43.0876 3.64428 43.3188C4.71579 46.0157 7.54513 49.8965 11.0048 54.0294C15.1297 58.9889 20.0951 64.2077 23.9259 68.0604C25.3476 69.5034 26.6502 70.7924 27.7497 71.8641C27.8407 71.9482 27.9248 72.0392 28.0158 72.1233H30.0118C18.5964 47.2696 23.5407 13.3374 24.9694 5.16955C9.05084 7.82444 2.32766 20.9238 2.32766 20.9238" fill="white"/>
</mask>
<g mask="url(#mask0_1_2)">
<path d="M29.997 5.17629H-0.166278V72.1371H29.997V5.17629Z" fill="url(#paint0_linear_1_2)"/>
</g>
<mask id="mask1_1_2" style="mask-type:luminance" maskUnits="userSpaceOnUse" x="33" y="5" width="30" height="68">
<path d="M33.6663 72.1375H35.6202H35.6692C36.8178 71.0167 38.2184 69.6367 39.7521 68.0746C43.583 64.2219 48.5483 58.9962 52.6733 54.0436C56.1329 49.9107 58.9622 46.0229 60.0338 43.333C60.1248 43.1018 60.1248 43.1088 60.2228 42.8566C60.2228 42.8566 60.2228 42.8566 60.2228 42.8496C62.1417 37.8761 63.8435 29.337 61.4624 21.2462L61.3644 21.3653V20.945C61.3644 20.945 54.6412 7.84567 38.7227 5.19077C40.1513 13.3586 45.0957 47.2838 33.6803 72.1515" fill="white"/>
</mask>
<g mask="url(#mask1_1_2)">
<path d="M63.8297 5.17777H33.6664V72.1385H63.8297V5.17777Z" fill="url(#paint1_linear_1_2)"/>
</g>
<mask id="mask2_1_2" style="mask-type:luminance" maskUnits="userSpaceOnUse" x="36" y="9" width="27" height="63">
<path d="M51.2177 43.7541C46.2453 56.153 37.9044 69.0352 36.1325 71.7111C39.8023 68.1455 45.531 62.3664 50.5174 56.6994C51.2947 55.8097 52.0511 54.9201 52.7864 54.0375C56.085 50.1007 58.8023 46.388 59.9788 43.7121C60.0068 43.6491 60.0349 43.579 60.0629 43.516C60.1049 43.4179 60.1259 43.3619 60.1469 43.3128C60.1329 43.3478 60.1259 43.3619 60.1609 43.2568C60.1609 43.2568 60.2099 43.1587 60.322 42.8435C62.2409 37.8699 63.9427 29.3308 61.5616 21.2401L61.4565 20.9319C61.4565 20.9319 57.9829 14.158 50.1112 9.3666C51.7499 15.2858 55.7698 32.392 51.2177 43.7541Z" fill="white"/>
</mask>
<g mask="url(#mask2_1_2)">
<path d="M62.7407 3.70398L23.4543 12.0566L37.3336 77.3691L76.62 69.0165L62.7407 3.70398Z" fill="url(#paint2_linear_1_2)"/>
</g>
<mask id="mask3_1_2" style="mask-type:luminance" maskUnits="userSpaceOnUse" x="0" y="9" width="28" height="63">
<path d="M2.25728 20.9319L2.15223 21.2401C-0.228899 29.3308 1.47291 37.8699 3.39182 42.8435C3.39182 42.8435 3.39182 42.8435 3.39182 42.8505C3.48286 43.1027 3.48286 43.0957 3.5809 43.3268C4.65241 46.0238 7.48175 49.9045 10.9414 54.0375C12.0409 55.3614 13.2035 56.7064 14.394 58.0373C19.0933 63.2771 24.2337 68.4538 27.6163 71.7391C25.8865 69.1192 17.5035 56.202 12.5101 43.7541C7.95798 32.392 11.9779 15.2858 13.6167 9.3666C5.74493 14.158 2.27128 20.9319 2.27128 20.9319" fill="white"/>
</mask>
<g mask="url(#mask3_1_2)">
<path d="M26.3968 3.70346L-12.9101 12.0604L0.975037 77.4003L40.2819 69.0434L26.3968 3.70346Z" fill="url(#paint3_linear_1_2)"/>
</g>
<path d="M31.8535 0.988392C31.1252 0.967377 27.3714 0.939358 25.1653 2.80269C25.1653 2.80269 19.0304 1.80097 14.1701 6.48732C13.0146 6.48031 8.29434 9.16322 4.56157 15.5728C3.54609 17.3451 2.74771 19.1734 2.21546 21.0367C2.95081 20.063 5.78015 16.1892 11.768 16.7286C12.1882 16.4064 15.921 12.3435 23.6666 13.7515C24.7241 12.6447 28.611 11.4609 31.8535 11.4188C35.096 11.4609 38.9829 12.6447 40.0404 13.7515C47.786 12.3435 51.5188 16.3994 51.939 16.7286C57.9268 16.1822 60.7632 20.056 61.5055 21.0297C60.9733 19.1664 60.1609 17.3381 59.1454 15.5658C55.4127 9.15622 50.6994 6.4663 49.5369 6.48031C44.6766 1.80097 38.5417 2.79568 38.5417 2.79568C36.3356 0.932352 32.5888 0.960372 31.8535 0.981387" fill="#D51F2F"/>
<path d="M25.1653 2.80257C25.1653 2.80257 19.0304 1.80086 14.1701 6.4872C13.0146 6.48019 8.29434 9.16311 4.56157 15.5727C3.5531 17.3449 2.74771 19.1733 2.21546 21.0366C2.95081 20.0629 5.78015 16.1891 11.768 16.7285C12.1812 16.4063 15.9069 12.3574 23.6246 13.7444C24.3669 7.52394 25.1653 2.79557 25.1653 2.79557" fill="#BF2029"/>
<path d="M11.768 16.7347C11.768 16.7347 11.775 16.7347 11.782 16.7277C12.8955 10.9065 14.1701 6.48638 14.1701 6.48638C13.0146 6.47937 8.29434 9.16229 4.56157 15.5719C3.54609 17.3441 2.74771 19.1724 2.21546 21.0358C2.95081 20.0621 5.78015 16.1883 11.768 16.7277" fill="#9F1D23"/>
<path d="M38.5418 2.80257C38.5418 2.80257 44.6768 1.80086 49.5371 6.4872C50.6926 6.48019 55.4128 9.16311 59.1456 15.5727C60.1611 17.3449 60.9735 19.1733 61.5057 21.0366C60.7704 20.0629 57.927 16.1891 51.9392 16.7355C51.526 16.4133 47.8002 12.3644 40.0826 13.7514C39.3402 7.53094 38.5418 2.80257 38.5418 2.80257Z" fill="#BF2029"/>
<path d="M51.9389 16.7347C51.9389 16.7347 51.9318 16.7347 51.9248 16.7277C50.8113 10.9065 49.5367 6.48638 49.5367 6.48638C50.6923 6.47937 55.4125 9.16229 59.1453 15.5719C60.1607 17.3441 60.9731 19.1724 61.5054 21.0358C60.77 20.0621 57.9267 16.1883 51.9389 16.7347Z" fill="#9F1D23"/>
<path d="M31.9585 75.8088H31.8745H28.5409L28.5829 75.9209L29.7945 80.264H31.9585V75.8088Z" fill="#424143"/>
<path d="M31.8813 75.8088H31.9653H35.2989L35.2568 75.9209L34.0453 80.264H31.8813V75.8088Z" fill="#646566"/>
<path d="M35.6496 75.9838H28.2121C28.2121 75.9838 28.1981 75.9768 28.1981 75.9698V75.4935C28.1981 75.4935 28.1981 75.4794 28.2121 75.4794H35.6496C35.6496 75.4794 35.6636 75.4864 35.6636 75.4935V75.9698C35.6636 75.9698 35.6566 75.9838 35.6496 75.9838Z" fill="#646566"/>
<path d="M35.208 76.1102L35.2431 75.9841H28.5969L28.6389 76.1102H35.208Z" fill="#424143"/>
<path d="M52.4082 39.6214C52.3171 39.6214 48.5353 35.6636 40.9928 36.3571C40.5796 36.1049 37.7782 34.6268 31.8534 34.3046C26.3979 34.4167 23.1273 36.1049 22.7141 36.3571C15.1715 35.6636 11.3897 39.6214 11.2987 39.6214C6.76756 39.4953 3.72812 42.6756 3.45499 43.0468C3.54603 43.299 3.54603 43.292 3.64408 43.5232C6.48042 50.5772 21.4325 65.771 28.1137 72.2366H35.6002C42.2814 65.771 57.2335 50.5772 60.0698 43.5232C60.1608 43.292 60.1608 43.299 60.2589 43.0468C59.9928 42.6756 56.9463 39.4953 52.4152 39.6214" fill="#045093"/>
<path d="M40.9927 36.35C48.5352 35.6565 52.317 39.6144 52.4081 39.6144C56.9392 39.4883 59.9786 42.6685 60.2518 43.0398C60.1607 43.292 60.1607 43.285 60.0627 43.5161C57.2263 50.5702 42.2813 65.764 35.5931 72.2296H33.5411C38.7376 61.0637 40.6215 48.0414 40.9927 36.343V36.35Z" fill="#1C447F"/>
<path d="M52.4081 39.6211C56.9392 39.495 59.9787 42.6753 60.2518 43.0466C60.1608 43.2987 60.1608 43.2917 60.0627 43.5229C57.2264 50.5769 42.2813 65.7708 35.5931 72.2364C35.5931 72.2364 45.4888 57.736 51.1195 43.8241C51.6587 42.4932 52.0789 41.0782 52.4011 39.6141" fill="#1F396E"/>
<path d="M22.7141 36.35C15.1715 35.6565 11.3897 39.6144 11.2987 39.6144C6.76756 39.4883 3.72812 42.6685 3.45499 43.0398C3.54603 43.292 3.54603 43.285 3.64408 43.5161C6.48042 50.5702 21.4255 65.764 28.1137 72.2296H30.1656C24.9692 61.0637 23.0853 48.0414 22.7141 36.343V36.35Z" fill="#1C447F"/>
<path d="M11.2987 39.6211C6.76756 39.495 3.72812 42.6753 3.45499 43.0466C3.54603 43.2987 3.54603 43.2917 3.64408 43.5229C6.48042 50.5769 21.4255 65.7708 28.1137 72.2364C28.1137 72.2364 18.218 57.736 12.5873 43.8241C12.0481 42.4932 11.6279 41.0782 11.3057 39.6141" fill="#1F396E"/>
<path d="M15.3186 24.9527C15.3186 24.9527 15.3186 24.9247 15.3186 24.9037C15.2836 24.0841 15.0035 23.4747 14.4922 23.1525C13.918 22.7812 13.0776 22.7532 12.0761 23.0824C10.9766 23.4467 9.89107 23.846 8.81956 24.2733C8.97364 27.0753 9.12771 29.8843 9.28178 32.6863C10.0031 32.3991 10.3603 32.266 11.0886 31.9998C11.0326 30.9 11.0046 30.3536 10.9486 29.2538C11.3688 29.0997 11.5789 29.0297 11.9991 28.8826C12.6784 29.7652 13.0216 30.2135 13.6939 31.1242C14.5343 30.865 14.9545 30.7389 15.8019 30.5077C15.1506 29.6391 14.4993 28.7705 13.8339 27.9089C14.7654 27.2084 15.3747 26.1436 15.3186 24.9527ZM13.4418 25.5412C13.4418 25.5412 13.4418 25.5482 13.4418 25.5552C13.4768 26.3187 12.9865 26.9352 12.1321 27.2154C11.6209 27.3905 11.3688 27.4745 10.8645 27.6567C10.8155 26.676 10.7875 26.1856 10.7385 25.2049C11.2357 25.0298 11.4808 24.9387 11.9781 24.7706C12.8955 24.4624 13.4067 24.7356 13.4418 25.5342" fill="#045093"/>
<path d="M42.4074 20.5535C41.2659 23.2504 40.1383 25.9473 39.0388 28.6583C39.8022 28.7423 40.1803 28.7913 40.9437 28.8964C41.2168 28.2029 41.3499 27.8527 41.623 27.1592C42.8136 27.3413 43.4019 27.4394 44.5854 27.6776C44.8235 28.4621 44.9426 28.8544 45.1807 29.639C45.9581 29.8001 46.3433 29.8911 47.1136 30.0803C46.1752 27.0051 45.2087 23.9369 44.2143 20.8757C43.4929 20.7356 43.1287 20.6726 42.4074 20.5605M44.0602 25.9613C43.3318 25.8212 42.9677 25.7582 42.2393 25.6461C42.6315 24.6654 42.8276 24.1751 43.2198 23.2014C43.5559 24.3011 43.724 24.8545 44.0602 25.9613Z" fill="#045093"/>
<path d="M52.9966 27.4398C53.872 26.361 54.7614 25.2892 55.6648 24.2315C54.8454 23.9092 54.4392 23.7551 53.6129 23.4609C52.9756 24.3225 52.6534 24.7568 52.0161 25.6325C51.5819 24.5887 51.1337 23.538 50.6855 22.5012C49.8311 22.2421 49.4039 22.123 48.5425 21.8988C49.3268 23.51 50.0972 25.1351 50.8536 26.7603C49.9291 27.9371 49.0117 29.128 48.1153 30.3258C48.9416 30.543 49.3478 30.6551 50.1672 30.9002C50.8395 29.9546 51.1757 29.4852 51.848 28.5536C52.3172 29.6673 52.7865 30.7881 53.2417 31.9089C54.0681 32.2032 54.4813 32.3573 55.3007 32.6795C54.5513 30.9212 53.7809 29.177 52.9966 27.4328" fill="#045093"/>
<path d="M19.6261 27.9367C19.6051 27.2152 19.5911 26.851 19.5701 26.1294C20.6906 25.8983 21.8252 25.6951 22.9597 25.527C22.9457 24.8685 22.9387 24.5393 22.9247 23.8808C21.7902 24.049 20.6486 24.2521 19.5211 24.4833C19.5001 23.7828 19.4931 23.4395 19.4721 22.739C20.7677 22.4869 22.0563 22.2627 23.3589 22.0666C23.3449 21.4081 23.3379 21.0788 23.3239 20.4204C21.377 20.7146 19.4511 21.0788 17.5322 21.5202C17.6302 24.3432 17.7282 27.1662 17.8193 29.9892C18.9818 29.709 20.1584 29.4638 21.335 29.2607C21.6641 28.5392 21.8252 28.1819 22.1543 27.4674C21.1389 27.6355 20.6346 27.7266 19.6261 27.9367Z" fill="#045093"/>
<path d="M35.6213 19.8811C34.956 20.7707 34.3046 21.6604 33.6533 22.564C33.002 21.6323 32.3437 20.7147 31.6784 19.797C31.6714 19.797 31.6644 19.797 31.6574 19.797C30.9921 21.0439 30.3338 22.2978 29.6895 23.5517C29.6965 25.1488 29.7105 26.746 29.7175 28.3501C30.4598 28.3221 30.824 28.3081 31.5663 28.3011C31.5663 26.5428 31.5663 24.7916 31.5593 23.0333C32.2387 23.9019 32.911 24.7706 33.5763 25.6532C33.5763 25.6602 33.5763 25.6672 33.5903 25.6742C33.6253 25.6742 33.6393 25.6742 33.6673 25.6742C34.3467 24.8126 35.026 23.951 35.7193 23.1034C35.7053 24.8686 35.6913 26.6269 35.6773 28.3922C36.4196 28.4342 36.7908 28.4552 37.5332 28.5182C37.5682 25.6882 37.6032 22.8512 37.6382 20.0212C36.8328 19.9511 36.4266 19.9231 35.6143 19.8811" fill="#045093"/>
<path d="M25.3619 28.679C26.8045 25.6949 28.2822 22.7318 29.809 19.7827C28.8705 19.8177 28.3943 19.8457 27.4558 19.9158C25.9501 22.9139 24.4864 25.933 23.0648 28.9732C23.9822 28.8401 24.4374 28.7771 25.3549 28.672" fill="#D51F2F"/>
<path d="M117.293 16.185V15.9258C117.293 11.5547 115.9 7.9121 113.266 5.40431C110.283 2.56029 105.815 1.05421 100.345 1.05421H82.4588V46.3275H92.5996V31.575H98.4123L107.089 46.3275H118.701L108.616 29.5505C112.615 27.8133 117.279 24.0866 117.279 16.185M107.082 16.3741V16.4372C107.082 20.5421 104.288 22.9869 99.6099 22.9869H92.6066V9.82447H99.4068C104.428 9.82447 107.082 12.0871 107.082 16.3741ZM260.476 0.795027L243.451 46.3275H253.69L257.121 36.5766H273.054L276.556 46.3275H287.061L270.036 0.795027H260.476ZM269.966 27.9954H260.21L265.119 14.1325L269.966 27.9954ZM316.671 23.176L330.236 1.05421H318.954L310.935 15.4074L303.042 1.05421H291.494L304.926 23.3091L290.884 46.3345H302.167L310.725 31.1477L319.22 46.3345H330.775L316.671 23.183V23.176ZM138.17 37.5572V27.9184H156.33V19.1481H138.17V9.83147H158.823V1.05421H128.099V46.3275H147.162L151.792 37.5572H138.177H138.17ZM225.088 1.05421L214.842 15.7227L204.464 1.05421H204.344L193.924 20.7873V46.3275H203.798V18.2935L214.471 32.1844L214.527 32.2755H214.955L225.747 18.1604V46.3275H235.684V1.05421H225.081H225.088Z" fill="#D51F30"/>
<path d="M181.45 1.05457L157.555 46.3279H169.874L193.776 1.05457H181.45Z" fill="#075090"/>
<path d="M250.812 78.003C250.209 78.4794 249.544 78.8927 248.83 79.2359C248.108 79.5792 247.324 79.8384 246.47 80.0205C245.615 80.1956 244.656 80.2867 243.591 80.2867C241.987 80.2867 240.496 79.9925 239.123 79.411C237.75 78.8296 236.56 78.0311 235.558 77.0223C234.557 76.0136 233.78 74.8158 233.212 73.4428C232.652 72.0698 232.365 70.5988 232.365 69.0366V68.9736C232.365 67.4115 232.645 65.9474 233.212 64.5815C233.772 63.2155 234.557 62.0176 235.558 60.9879C236.56 59.9582 237.757 59.1456 239.151 58.5502C240.545 57.9547 242.092 57.6605 243.78 57.6605C244.803 57.6605 245.734 57.7446 246.575 57.9127C247.422 58.0808 248.185 58.305 248.872 58.5992C249.558 58.8934 250.195 59.2437 250.777 59.664C251.358 60.0843 251.904 60.5396 252.401 61.0369L249.341 64.5675C248.486 63.7969 247.618 63.1945 246.729 62.7532C245.839 62.3118 244.845 62.0947 243.745 62.0947C242.828 62.0947 241.98 62.2698 241.196 62.6271C240.412 62.9843 239.739 63.4747 239.179 64.0981C238.619 64.7216 238.178 65.4501 237.869 66.2697C237.554 67.0963 237.4 67.9719 237.4 68.9106V68.9736C237.4 69.9123 237.554 70.7949 237.869 71.6285C238.066 72.1469 238.304 72.6232 238.591 73.0575C238.766 73.3237 238.962 73.5759 239.172 73.8141C239.725 74.4375 240.391 74.9349 241.175 75.2991C241.959 75.6634 242.814 75.8455 243.752 75.8455C245.006 75.8455 246.063 75.6143 246.925 75.159C247.793 74.7037 248.648 74.0732 249.502 73.2817L252.562 76.3779C252.002 76.9803 251.414 77.5267 250.812 78.003Z" fill="#075090"/>
<path d="M258.957 80.2796V57.6395H275.24V61.8705H263.656V66.76H273.853V70.991H263.656V76.0346H275.401V80.2656H258.964L258.957 80.2796Z" fill="#075090"/>
<path d="M157.08 80.2796V57.6395H173.363V61.8705H161.779V66.76H171.976V70.991H161.779V76.0346H173.524V80.2656H157.087L157.08 80.2796Z" fill="#075090"/>
<path d="M300.186 80.2796L297.98 74.9278H288.833L286.641 80.2796H281.788L291.417 57.6395H295.507L305.151 80.2796H300.179H300.186ZM293.406 63.7128L290.535 70.7248H296.285L293.413 63.7128H293.406Z" fill="#075090"/>
<path d="M327.113 80.2796L316.258 66.0244V80.2796H311.559V57.6395H315.564L326.083 71.4603V57.6395H330.783V80.2796H327.12H327.113Z" fill="#075090"/>
<path d="M190.205 71.5943C190.037 70.4245 191.739 68.8203 193.476 68.2389C195.212 67.6575 196.655 68.0568 197.138 68.2179C197.622 68.379 198.189 67.9797 198.581 66.8029C198.973 65.6261 199.281 64.8275 199.849 64.5403C200.416 64.2531 201.368 62.8731 201.501 62.5579C201.634 62.2426 202.65 61.8924 202.916 61.6682C203.182 61.4441 203.595 60.9397 203.925 60.8346C204.254 60.7296 204.877 60.7296 205.374 60.4634C205.871 60.1972 206.621 59.8399 207.16 59.8119C207.699 59.7839 207.965 59.945 208.19 59.896C208.414 59.8469 208.904 59.5737 209.695 59.7629C210.487 59.952 210.452 59.973 210.837 59.987C211.222 60.001 211.978 59.7909 212.287 59.917C212.287 59.917 211.971 59.2235 211.544 58.9363C211.117 58.6491 210.515 57.9346 210.186 57.5073C209.856 57.08 207.37 55.9241 206.481 54.9715C205.598 54.0118 203.553 51.6441 204.065 50.2781C204.583 48.9121 212.924 51.0346 215.382 54.9084C218.386 59.6508 216.552 62.677 216.552 62.677C217.56 63.2304 218.372 63.6086 219.15 63.1673C219.927 62.726 221.216 61.346 223.786 61.7803C226.356 62.2146 228.394 63.6507 227.736 65.0517C227.078 66.4527 225.299 68.4351 223.212 67.7416C221.132 67.0481 220.592 68.4981 220.284 69.2406C219.577 70.9499 220.803 71.3982 221.762 72.6731C222.721 73.948 225.411 82.5641 216.881 86.9353C214.212 88.3012 213.862 87.5517 213.456 86.6481C213.043 85.7374 214.128 84.8688 214.64 84.0422C214.906 83.6149 214.913 82.8303 215.263 82.2839C215.613 81.7376 215.991 81.8356 216.138 81.4083C216.376 80.6868 216.811 79.4119 217.28 79.1317C217.749 78.8515 219.444 77.3174 218.351 75.4751C218.351 75.4751 217.728 75.8323 217.14 76.4628C216.552 77.0932 215.998 77.9969 215.284 78.3541C213.848 79.0686 213.673 79.622 212.637 79.8392C211.6 80.0564 210.15 80.1684 209.163 80.5397C208.764 80.6868 208.4 80.4837 207.916 80.5047C207.202 80.5327 206.327 80.6938 205.472 80.3085C204.051 79.6711 203.455 79.8112 202.923 79.538C202.391 79.2648 200.283 78.3752 200.283 78.3752C200.283 78.3752 196.298 82.9074 193.399 81.7656C192.236 81.3102 192.635 80.8199 192.803 80.4346C193.062 79.8672 193.588 79.4189 193.847 78.6764C193.994 78.2491 194.113 77.7867 194.47 77.4785C195.163 76.8831 196.34 76.6169 197.376 76.6029C197.334 76.1336 196.697 75.1248 196.557 73.948C196.424 72.7712 196.662 71.4682 196.662 71.4682C195.38 70.9358 195.016 72.1127 193.868 72.2318C192.719 72.3509 190.387 72.7852 190.219 71.6153" fill="url(#paint4_linear_1_2)"/>
<path d="M224.487 66.5374C224.487 66.5374 225.474 67.294 225.936 65.991C225.936 65.991 224.928 65.4096 224.487 66.5374Z" fill="#045093"/>
<path d="M217.322 63.8323C218.835 64.9531 219.829 67.8812 219.493 69.4433C219.458 69.6184 219.248 69.6885 219.108 69.5834L217.504 68.3155C217.434 68.2595 217.385 68.1894 217.357 68.1053L216.468 65.4925C216.433 65.3874 216.433 65.2753 216.475 65.1773L216.958 63.9374C217.014 63.7903 217.196 63.7412 217.322 63.8323Z" fill="#1C447F"/>
<path d="M216.93 69.0794C217.14 68.8622 217.469 68.8272 217.721 68.9883C218.337 69.3876 219.36 70.1932 219.304 71.1319C219.269 71.7413 217.266 75.0056 215.13 75.7271C214.892 75.8112 214.647 75.6291 214.64 75.3769C214.619 74.6554 214.549 73.2333 214.317 72.1616C214.275 71.9584 214.338 71.7483 214.486 71.5942L216.937 69.0794H216.93Z" fill="#1C447F"/>
<path d="M216.012 65.6126C216.23 66.0399 216.622 66.9226 216.769 67.9103C216.811 68.2185 216.727 68.5267 216.545 68.7789C216.166 69.2833 215.417 70.1729 214.402 70.9014C214.093 71.1256 213.687 71.1746 213.33 71.0485C212.735 70.8314 211.796 70.4741 211.292 70.1589C211.124 70.0538 210.984 69.9067 210.893 69.7316C210.648 69.2833 210.06 68.1274 209.849 66.8595C209.8 66.5863 209.849 66.2991 209.997 66.061C210.298 65.5496 210.9 64.6179 211.558 64.1486C211.803 63.9735 212.112 63.9104 212.413 63.9595C213.043 64.0645 214.374 64.3587 215.606 65.1573C215.781 65.2694 215.921 65.4235 216.012 65.6126Z" fill="#1F396E"/>
<path d="M209.24 66.8521C209.45 67.5246 210.171 69.542 210.438 70.1725C210.48 70.2776 210.452 70.4036 210.361 70.4807C209.961 70.8169 208.904 71.7206 208.519 72.0988C208.442 72.1759 208.33 72.1969 208.232 72.1549C207.734 71.9517 206.292 71.3493 205.696 71.1532C205.605 71.1252 205.535 71.0481 205.521 70.95C205.437 70.5157 205.192 69.2828 205.066 68.7505C205.052 68.6804 205.066 68.6104 205.101 68.5473C205.339 68.169 206.222 66.754 206.516 66.1586C206.572 66.0395 206.712 65.9835 206.838 66.0255C207.335 66.1866 208.505 66.5579 209.044 66.67C209.135 66.691 209.212 66.761 209.24 66.8521Z" fill="#1F396E"/>
<path d="M216.362 62.8603C216.727 63.0985 216.684 64.2543 216.089 64.8497C216.04 64.8987 215.956 64.9128 215.893 64.8847C215.438 64.6606 213.554 63.7569 212.188 63.4277C212.132 63.4137 212.083 63.3717 212.069 63.3156C211.985 63.0494 211.705 62.2368 211.124 61.4943C211.04 61.3822 211.117 61.2211 211.25 61.2211C212.034 61.2001 214.072 61.3262 216.362 62.8603Z" fill="#1C447F"/>
<path d="M211.537 63.6305C211.11 63.9738 210.059 64.8564 209.471 65.634C209.366 65.7741 209.191 65.8231 209.03 65.7741C208.589 65.634 207.713 65.3678 206.922 65.2627C206.817 65.2487 206.726 65.1997 206.656 65.1156C206.445 64.8564 205.948 64.247 205.444 63.7777C205.283 63.6305 205.269 63.3784 205.416 63.2172C206.011 62.5588 207.559 61.1017 209.66 61.2138C210.199 61.2418 210.711 61.487 211.047 61.9143C211.404 62.3626 211.586 62.909 211.663 63.2243C211.698 63.3784 211.649 63.5325 211.523 63.6305H211.537Z" fill="#1C447F"/>
<path d="M211.32 70.9433C211.908 71.2095 212.875 71.5387 213.4 71.7138C213.624 71.7909 213.785 71.994 213.799 72.2322C213.862 73.0868 214.002 75.0692 214.016 75.4755C214.016 75.6296 213.841 76.2671 213.274 76.5893C211.873 77.3739 208.4 77.8082 208.344 76.5473C208.316 75.9098 209.149 74.3687 208.631 72.9887C208.47 72.4634 209.786 71.7138 210.732 71.0133C210.9 70.8872 211.124 70.8662 211.32 70.9503V70.9433Z" fill="#1C447F"/>
<path d="M208.036 72.5965C208.722 72.7716 208.288 75.8188 207.742 76.6174C207.195 77.4159 203.421 75.5246 203.35 74.5719C203.287 73.7243 204.492 72.5755 205.101 71.7279C205.213 71.5738 205.423 71.5247 205.592 71.6158C206.397 72.0711 207.679 72.4984 208.029 72.5895L208.036 72.5965Z" fill="#1C447F"/>
<path d="M206.215 65.5917C205.585 66.4043 205.017 67.392 204.716 68.0294C204.653 68.1625 204.499 68.2256 204.366 68.1766C203.785 67.9664 202.307 67.469 201.53 67.392C201.341 67.371 201.221 67.1818 201.292 66.9997C201.656 66.0891 202.678 63.9455 204.268 63.9035C205.171 63.8825 206.026 64.8282 206.25 65.2905C206.299 65.3886 206.285 65.5076 206.222 65.5917H206.215Z" fill="#1C447F"/>
<path d="M204.17 68.547C204.765 68.7921 204.737 70.8096 204.877 71.0968C205.017 71.384 203.386 73.4365 203.036 73.9688C202.685 74.5012 201.649 74.0319 201.173 73.6606C200.696 73.2894 199.576 72.4347 199.569 71.5451C199.562 70.6555 199.891 69.3806 200.017 68.8552C200.143 68.3298 200.64 67.7834 201.88 67.8955C203.12 68.0076 203.526 68.2808 204.163 68.547H204.17Z" fill="#1C447F"/>
<path d="M217.49 74.6486C217.49 74.6486 217.272 75.4682 216.803 75.4962C216.341 75.5242 216.95 74.6696 217.49 74.6486Z" fill="#045093"/>
<path d="M216.236 75.7072C216.586 75.7913 215.907 76.8561 215.515 76.9121C215.123 76.9681 215.165 76.3027 215.256 76.1766C215.347 76.0505 216.026 75.6512 216.236 75.7072Z" fill="#045093"/>
<path d="M214.899 76.4357C215.137 76.4917 214.892 77.5985 214.388 77.9067C213.884 78.215 213.4 78.348 213.218 78.3691C213.036 78.3901 213.113 77.2833 213.491 76.9541C213.87 76.6248 214.696 76.3796 214.906 76.4357H214.899Z" fill="#045093"/>
<path d="M212.917 77.2751C212.742 77.7234 212.756 78.7952 212.461 78.9353C212.167 79.0754 211.523 79.2155 211.215 79.0263C210.907 78.8372 210.886 77.9966 211.047 77.7654C211.208 77.5343 212.665 77.2471 212.91 77.2751H212.917Z" fill="#045093"/>
<path d="M210.613 77.9473C210.872 77.9123 210.445 78.928 210.501 79.1522C210.557 79.3763 208.316 80.0068 207.825 79.2292C207.335 78.4517 207.966 77.2258 208.204 77.3098C208.351 77.3589 209.807 78.0524 210.613 77.9403V77.9473Z" fill="#045093"/>
<path d="M207.23 77.2962C207.622 77.3943 207.195 78.5711 207.244 78.9914C207.293 79.4117 206.887 79.6919 206.179 79.4958C205.472 79.2996 204.653 78.9144 204.849 77.9127C205.045 76.9109 205.185 76.8339 205.458 76.7849C205.731 76.7358 206.719 77.1701 207.23 77.2962Z" fill="#045093"/>
<path d="M203.567 75.7905C203.945 76.1688 204.4 76.421 204.687 76.5751C204.786 76.6241 204.828 76.7432 204.793 76.8413C204.645 77.2896 204.281 78.4454 204.435 78.7537C204.624 79.1459 202.734 78.8237 202.446 78.2283C202.173 77.6679 202.18 76.3089 203.203 75.7345C203.322 75.6645 203.476 75.6855 203.574 75.7835L203.567 75.7905Z" fill="#045093"/>
<path d="M202.818 75.2171C203.147 75.3992 201.929 76.52 201.438 77.949C201.34 78.2292 200.087 77.4727 199.681 76.7442C199.274 76.0156 200.472 74.6146 200.822 74.5446C201.172 74.4745 202.118 74.8248 202.818 75.2171Z" fill="#045093"/>
<path d="M200.472 74.0046C200.647 74.3339 199.254 75.7349 199.247 76.1482C199.24 76.5615 198.903 76.6735 198.511 76.2042C198.119 75.7279 197.545 74.8873 197.888 74.0887C198.231 73.2901 198.735 72.9259 199.009 72.8979C199.282 72.8698 200.388 73.8505 200.472 74.0116V74.0046Z" fill="#045093"/>
<path d="M199.036 70.5433C199.415 70.7675 199.043 72.1265 198.742 72.4767C198.441 72.827 197.468 73.6816 197.195 73.7586C196.921 73.8357 197.019 72.6589 197.16 72.0494C197.307 71.447 197.643 70.7185 197.916 70.6204C198.189 70.5223 198.763 70.3822 199.029 70.5433H199.036Z" fill="#045093"/>
<path d="M199.176 69.9835C199.4 69.7103 199.442 68.7436 199.702 68.4144C199.954 68.0782 200.577 67.7559 199.989 67.5458C199.4 67.3356 198.42 68.0782 198.21 68.5825C198 69.0869 197.699 69.6823 197.86 69.9975C198.021 70.3128 199.015 70.1797 199.176 69.9835Z" fill="#045093"/>
<path d="M200.171 67.1883C200.647 67.0903 201.662 65.4021 201.739 65.0868C201.816 64.7716 201.501 64.5334 201.193 64.6595C200.878 64.7856 199.624 65.5422 199.323 66.5369C199.022 67.5316 199.715 67.2794 200.178 67.1883H200.171Z" fill="#045093"/>
<path d="M204.268 63.336C203.932 63.5251 202.741 63.9174 202.489 64.2677C202.237 64.6249 202.146 64.5479 201.698 64.3797C201.256 64.2186 200.808 64.0435 201.382 63.4901C201.957 62.9437 202.692 62.4674 202.951 62.3623C203.21 62.2572 204.744 63.0628 204.268 63.329V63.336Z" fill="#045093"/>
<path d="M205.094 62.9017C205.409 62.6005 206.186 61.928 206.354 61.844C206.522 61.7599 206.452 61.5217 205.878 61.2766C205.304 61.0314 205.038 60.9473 204.604 61.1084C204.169 61.2696 203.819 61.5568 203.616 61.7249C203.413 61.893 203.399 62.0962 203.973 62.3693C204.548 62.6425 204.842 63.1539 205.101 62.9017H205.094Z" fill="#045093"/>
<path d="M208.224 61.0102C208.624 60.9122 208.883 60.7581 208.294 60.5619C207.706 60.3658 206.698 60.4849 206.418 60.611C206.137 60.737 206.397 61.7318 207.034 61.5076C207.671 61.2834 207.622 61.1573 208.224 61.0102Z" fill="#045093"/>
<path d="M209.38 60.8074C209.982 61.0666 211.474 60.9966 210.606 60.5272C209.737 60.0509 208.358 60.3661 209.38 60.8074Z" fill="#045093"/>
<path d="M211.418 60.8278C211.782 61.059 212.847 61.031 212.426 60.7928C212.006 60.5546 210.935 60.5196 211.418 60.8278Z" fill="#045093"/>
<path style="mix-blend-mode:multiply" opacity="0.4" d="M220.46 81.6328C220.474 81.6818 220.516 81.7168 220.565 81.7168C220.614 81.7168 220.663 81.6888 220.677 81.6398C220.726 81.4927 220.88 81.4296 221.048 81.3666C221.223 81.3036 221.419 81.2265 221.433 81.0163C221.447 80.7782 221.244 80.6661 221.083 80.575C220.985 80.519 220.887 80.47 220.859 80.3999C220.831 80.3439 220.831 80.2668 220.831 80.1898C220.831 80.0777 220.824 79.9446 220.719 79.8815C220.712 79.8815 220.705 79.8745 220.698 79.8675C220.768 79.7905 220.845 79.7134 220.929 79.6504C220.936 79.6504 220.943 79.6364 220.95 79.6364C220.992 79.6994 221.013 79.9656 220.992 80.2108C220.992 80.2528 221.006 80.2948 221.041 80.3158C221.076 80.3369 221.118 80.3369 221.16 80.3158C221.174 80.3158 221.433 80.1617 221.678 79.6714C221.923 79.188 221.916 78.6487 221.909 78.6276C221.909 78.5786 221.881 78.5436 221.839 78.5226C221.797 78.5086 221.748 78.5226 221.713 78.5506C221.489 78.8028 221.125 78.6767 220.929 78.5786C220.852 78.5366 220.796 78.4735 220.768 78.3895C220.712 78.2284 220.761 78.0252 220.824 77.8991C220.901 77.745 220.964 77.5979 221.02 77.4368H221.027C221.048 77.4438 221.139 77.5769 221.069 78.0252C221.055 78.1093 221.013 78.3755 221.188 78.4525C221.44 78.5506 221.825 78.0532 221.937 77.8991C222.182 77.5629 222.365 76.7293 222.189 76.5261C222.133 76.4631 222.056 76.4491 221.979 76.4911C221.972 76.4911 221.937 76.5051 221.86 76.4841C221.622 76.4071 221.286 76.0988 221.146 75.8186C221.111 75.7556 221.09 75.6645 221.146 75.6015C221.188 75.5524 221.251 75.5314 221.293 75.5454C221.314 75.5454 221.314 75.5594 221.314 75.5665C221.377 75.8747 221.587 76.1058 221.839 76.1339C221.895 76.1339 222.007 76.1339 222.098 75.9868C222.203 75.8186 222.273 75.4824 222.196 75.3423C222.091 75.1602 221.685 74.866 221.559 74.7819C221.419 74.6838 221.363 74.5297 221.377 74.4316C221.384 74.3686 221.419 74.3546 221.44 74.3476C221.482 74.3336 221.503 74.3476 221.517 74.3476C221.566 74.3756 221.601 74.4597 221.608 74.4877C221.622 74.5367 221.671 74.5788 221.72 74.5717C221.776 74.5717 221.818 74.5297 221.825 74.4737C222.021 73.1497 220.228 71.6997 219.983 71.5526C219.871 71.4825 219.766 71.4685 219.661 71.4966C219.444 71.5526 219.304 71.8118 219.087 72.19L219.073 72.2111C218.779 72.7504 218.464 73.549 218.492 74.0324C218.492 74.0954 218.548 74.1444 218.611 74.1374C218.674 74.1374 218.723 74.0814 218.716 74.0184C218.695 73.5981 218.975 72.8415 219.269 72.3161L219.283 72.2951C219.451 71.9869 219.591 71.7417 219.717 71.7067C219.745 71.7067 219.787 71.6927 219.864 71.7417C220.179 71.9309 221.503 73.0727 221.608 74.1374C221.538 74.1024 221.461 74.0954 221.377 74.1234C221.258 74.1585 221.174 74.2565 221.153 74.3896C221.118 74.5928 221.23 74.8309 221.426 74.964C221.755 75.1952 221.951 75.3773 221.993 75.4474C222.014 75.4964 221.993 75.7486 221.895 75.8747C221.874 75.9027 221.86 75.9097 221.853 75.9097C221.706 75.8957 221.573 75.7346 221.531 75.5244C221.51 75.4264 221.44 75.3493 221.335 75.3283C221.202 75.2933 221.048 75.3563 220.957 75.4684C220.859 75.5945 220.852 75.7626 220.936 75.9307C221.104 76.267 221.489 76.6102 221.783 76.7083C221.874 76.7363 221.951 76.7433 222.021 76.7223C222.049 76.9044 221.958 77.4788 221.748 77.773C221.552 78.0392 221.356 78.2143 221.272 78.2424C221.272 78.2213 221.265 78.1653 221.279 78.0672C221.342 77.6399 221.293 77.3527 221.132 77.2547C221.111 77.2407 221.097 77.2336 221.076 77.2266C221.09 77.1776 221.104 77.1286 221.125 77.0725C221.174 76.9114 221.118 76.7713 220.978 76.7013C220.782 76.5962 220.446 76.6662 220.228 76.9464C220.06 77.1566 220.165 77.3037 220.214 77.3597C220.327 77.4788 220.551 77.5349 220.74 77.5279C220.705 77.6259 220.663 77.717 220.614 77.8081C220.53 77.9692 220.467 78.2354 220.544 78.4735C220.593 78.6206 220.691 78.7327 220.824 78.7958C221.146 78.9499 221.44 78.9779 221.664 78.8728C221.643 79.0619 221.594 79.3281 221.468 79.5803C221.377 79.7554 221.293 79.8815 221.216 79.9656C221.216 79.7554 221.174 79.5103 221.041 79.4402C220.999 79.4122 220.901 79.3842 220.782 79.4752C220.649 79.5733 220.537 79.6924 220.446 79.7975C220.432 79.8115 220.425 79.8255 220.411 79.8395C220.411 79.8325 220.411 79.8185 220.418 79.8115C220.467 79.6504 220.544 79.4262 220.495 79.2231C220.446 79.0129 220.313 78.9569 220.235 78.9429C220.011 78.9078 219.724 79.111 219.591 79.3281C219.472 79.5173 219.535 79.7695 219.633 79.9446C219.724 80.1127 219.892 80.2878 220.088 80.2878C220.221 80.2878 220.334 80.2178 220.432 80.1267C220.446 80.1267 220.453 80.1197 220.467 80.1127C220.53 80.0847 220.565 80.0777 220.579 80.0777C220.586 80.1057 220.586 80.1617 220.593 80.2038C220.593 80.2948 220.6 80.3999 220.642 80.498C220.705 80.6311 220.845 80.7081 220.964 80.7782C221.125 80.8692 221.202 80.9183 221.195 81.0023C221.195 81.0654 221.118 81.1004 220.957 81.1564C220.838 81.1985 220.705 81.2545 220.6 81.3456C220.544 81.2125 220.467 81.0864 220.362 81.0654C220.32 81.0584 220.235 81.0584 220.165 81.1564C220.046 81.3176 220.004 81.6398 220.067 81.92C220.116 82.1441 220.221 82.3053 220.369 82.3963C220.383 82.3963 220.39 82.4103 220.397 82.4103C220.362 82.4454 220.257 82.5084 220.193 82.5434C220.074 82.6135 219.955 82.6835 219.878 82.7676C219.85 82.7116 219.801 82.6345 219.724 82.6065C219.689 82.5925 219.633 82.5925 219.563 82.6275C219.472 82.6765 219.388 82.8166 219.311 82.9567C219.297 82.9777 219.283 83.0058 219.262 83.0338C219.262 83.0338 219.262 83.0268 219.262 83.0198C219.234 82.6205 219.073 82.5504 218.975 82.5434C218.786 82.5294 218.611 82.7536 218.548 83.0758C218.45 83.6082 218.933 83.9304 218.954 83.9444C218.954 83.9444 218.968 83.9514 218.975 83.9514C219.024 83.9725 219.08 83.9514 219.108 83.9094C219.143 83.8604 219.129 83.7903 219.073 83.7553C219.059 83.7483 218.695 83.5031 218.765 83.1248C218.814 82.8797 218.926 82.7746 218.954 82.7746C218.968 82.7746 219.017 82.8376 219.031 83.0408C219.038 83.1809 219.066 83.342 219.185 83.363C219.318 83.391 219.395 83.2579 219.5 83.0688C219.542 82.9988 219.612 82.8797 219.654 82.8376C219.661 82.8517 219.668 82.8657 219.675 82.8797C219.71 82.9427 219.752 83.0268 219.843 83.0338C219.941 83.0408 220.004 82.9567 220.025 82.9287C220.074 82.8657 220.193 82.7956 220.292 82.7396C220.467 82.6345 220.621 82.5504 220.621 82.4033C220.621 82.3193 220.572 82.2492 220.474 82.1932C220.383 82.1371 220.313 82.0251 220.278 81.8639C220.228 81.6468 220.264 81.4156 220.327 81.3035C220.369 81.3666 220.418 81.4927 220.446 81.6188L220.46 81.6328ZM220.383 77.2056C220.383 77.2056 220.348 77.1636 220.411 77.0865C220.558 76.8974 220.768 76.8554 220.866 76.8974C220.866 76.8974 220.873 76.8974 220.88 76.8974C220.908 76.9114 220.936 76.9394 220.915 77.0025C220.887 77.1005 220.859 77.1916 220.831 77.2827C220.726 77.3107 220.474 77.2897 220.39 77.1986L220.383 77.2056ZM220.088 80.0637C220.025 80.0637 219.913 79.9866 219.829 79.8325C219.745 79.6854 219.724 79.5313 219.78 79.4472C219.878 79.2861 220.081 79.146 220.193 79.167C220.193 79.167 220.2 79.167 220.207 79.167C220.228 79.174 220.249 79.195 220.27 79.2651C220.299 79.4052 220.242 79.5873 220.2 79.7344C220.158 79.8605 220.123 79.9656 220.151 80.0426C220.13 80.0497 220.109 80.0567 220.088 80.0567V80.0637ZM219.5 81.6118C219.787 81.4086 220.123 80.7782 220.004 80.582C219.969 80.526 219.885 80.477 219.766 80.547C219.717 80.575 219.668 80.6031 219.626 80.6381C219.5 80.7221 219.395 80.7992 219.227 80.7852C219.017 80.7642 218.863 80.8272 218.8 80.9533C218.723 81.1004 218.779 81.3035 218.989 81.5697C219.031 81.6258 219.087 81.6678 219.143 81.6888C219.255 81.7309 219.381 81.7098 219.507 81.6188L219.5 81.6118ZM218.989 81.0584C218.989 81.0584 219.08 81.0023 219.199 81.0093C219.444 81.0304 219.598 80.9253 219.745 80.8272C219.759 80.8202 219.766 80.8132 219.78 80.7992C219.717 81.0023 219.507 81.3736 219.311 81.4577C219.248 81.4857 219.206 81.4717 219.157 81.4156C218.947 81.1494 218.982 81.0584 218.989 81.0514V81.0584ZM221.181 66.6771C220.726 65.9556 220.481 65.6754 220.27 65.6544C220.158 65.6404 220.032 65.6894 219.941 65.7665C219.843 65.6964 219.752 65.6264 219.661 65.5703C219.563 65.5073 219.472 65.4442 219.388 65.3742C218.982 65.052 218.779 64.5126 218.723 64.3515L218.709 64.3094C218.695 64.2674 218.674 64.2184 218.674 64.2044C218.688 64.1903 218.758 64.1413 219.129 64.0993C219.885 64.0152 220.404 63.5319 220.726 63.1746L220.838 63.0485C221.006 62.8594 221.076 62.7823 221.139 62.7543C221.125 62.7963 221.111 62.8384 221.104 62.8804C221.055 63.1956 221.258 63.5249 221.468 63.651C221.503 63.672 221.531 63.693 221.559 63.721C221.37 63.763 221.349 63.749 221.16 63.5809C221.02 63.4618 220.901 63.4758 220.845 63.4968C220.754 63.5319 220.684 63.6229 220.663 63.735C220.635 63.8961 220.698 64.1413 220.943 64.3445C221.342 64.6737 221.643 64.5616 221.902 64.3585C221.923 64.4565 221.937 64.5546 221.937 64.6387C221.937 64.8488 222.112 65.0099 222.393 65.08C222.68 65.15 223.044 65.108 223.156 64.8908C223.289 64.6247 223.044 64.4916 222.897 64.4075C222.827 64.3725 222.75 64.3234 222.722 64.2814C222.694 64.2394 222.701 64.2184 222.722 64.1483C222.75 64.0713 222.792 63.9732 222.743 63.8401C222.701 63.728 222.631 63.686 222.575 63.672C222.442 63.6369 222.273 63.721 221.993 63.9662C221.972 63.9242 221.958 63.8891 221.937 63.8541C222.322 63.749 222.554 63.6019 222.568 63.2307C222.568 63.1396 222.533 63.0835 222.505 63.0555C222.407 62.9575 222.231 62.9645 222.063 62.9715C221.986 62.9715 221.839 62.9785 221.811 62.9645C221.811 62.8314 221.762 62.6773 221.601 62.5862C221.657 62.5582 221.72 62.5372 221.783 62.5232C222.61 62.32 223.772 62.376 224.178 62.5582C224.234 62.5862 224.269 62.6282 224.283 62.6913C224.318 62.8524 224.234 63.1116 224.115 63.3427C223.996 63.3147 223.884 63.3007 223.786 63.2867C223.667 63.2727 223.527 63.2517 223.499 63.2166C223.492 63.2026 223.492 63.1746 223.513 63.1116C223.576 62.9224 223.513 62.8244 223.457 62.7823C223.373 62.7123 223.24 62.7053 223.107 62.7683C222.897 62.8664 222.694 63.1186 222.708 63.4548C222.722 63.735 222.89 63.9452 223.17 64.0432C223.492 64.1553 223.87 64.0783 224.045 63.8681C224.094 63.8051 224.157 63.721 224.227 63.6089C224.276 63.6299 224.332 63.658 224.381 63.686C224.788 63.9522 225.271 64.0572 225.53 63.9452C225.628 63.9031 225.698 63.8191 225.712 63.721C225.747 63.5039 225.474 63.4058 225.159 63.3007C224.963 63.2307 224.627 63.1186 224.641 63.0205C224.655 62.8944 224.676 62.7333 224.732 62.7053C224.753 62.6913 224.816 62.6773 225.005 62.7403C225.915 63.0485 226.454 63.3778 226.44 63.5249C226.44 63.6229 226.391 63.6369 226.37 63.644C226.293 63.665 226.167 63.6159 226.125 63.5599C226.083 63.4968 226.013 63.4688 225.943 63.4828C225.824 63.5109 225.761 63.644 225.74 63.742C225.705 63.9101 225.768 64.0643 225.894 64.1483C226.02 64.2324 226.398 64.4916 226.714 64.1063C226.756 64.0572 226.749 63.9872 226.7 63.9452C226.651 63.9031 226.58 63.9101 226.538 63.9592C226.426 64.0993 226.3 64.1413 226.027 63.9592C225.985 63.9312 225.964 63.8891 225.964 63.8331C225.964 63.7911 225.971 63.756 225.985 63.728C226.09 63.8261 226.279 63.8961 226.433 63.8541C226.573 63.8121 226.658 63.7 226.665 63.5389C226.679 63.3638 226.482 63.0065 225.075 62.5302C224.858 62.4531 224.718 62.4531 224.613 62.5161C224.571 62.5442 224.536 62.5792 224.515 62.6212C224.479 62.4951 224.402 62.4041 224.283 62.348C223.835 62.1449 222.624 62.0818 221.741 62.299C221.545 62.348 221.405 62.4251 221.314 62.5091C221.3 62.5091 221.293 62.5091 221.279 62.5091C221.027 62.5091 220.964 62.5792 220.677 62.8944L220.565 63.0205C220.095 63.5389 219.633 63.8121 219.108 63.8751C218.716 63.9171 218.562 63.9732 218.492 64.0853C218.429 64.1833 218.464 64.2884 218.506 64.3865L218.52 64.4285C218.576 64.6036 218.807 65.1921 219.255 65.5563C219.346 65.6264 219.437 65.6894 219.542 65.7595C219.633 65.8225 219.724 65.8856 219.815 65.9486C219.766 66.0607 219.745 66.2288 219.85 66.446C219.85 66.453 220.285 67.2305 220.586 67.3496C220.628 67.3636 220.67 67.3706 220.705 67.3496C220.859 67.2866 220.803 67.0624 220.74 66.8592C220.6 66.4109 220.369 66.1237 220.13 65.9066C220.172 65.8785 220.221 65.8645 220.264 65.8715C220.383 65.8856 220.635 66.1938 221.006 66.7892C221.041 66.8452 221.111 66.8592 221.16 66.8242C221.216 66.7892 221.23 66.7191 221.195 66.6701L221.181 66.6771ZM222.112 64.1833C222.428 63.9031 222.512 63.8961 222.519 63.9031C222.519 63.9031 222.519 63.9031 222.533 63.9242C222.554 63.9732 222.533 64.0082 222.512 64.0783C222.484 64.1553 222.435 64.2744 222.526 64.4215C222.582 64.5126 222.687 64.5616 222.785 64.6176C222.974 64.7227 222.974 64.7437 222.953 64.7998C222.911 64.8768 222.68 64.9259 222.442 64.8698C222.301 64.8348 222.154 64.7648 222.154 64.6527C222.154 64.5196 222.126 64.3655 222.084 64.2114C222.091 64.2043 222.098 64.1973 222.112 64.1903V64.1833ZM223.87 63.728C223.758 63.8681 223.471 63.9171 223.247 63.8331C223.135 63.7981 222.946 63.693 222.939 63.4478C222.932 63.2237 223.051 63.0695 223.17 62.9925C223.247 62.9435 223.303 62.9435 223.31 62.9435C223.31 62.9435 223.324 62.9645 223.296 63.0345C223.254 63.1536 223.261 63.2517 223.31 63.3287C223.394 63.4548 223.562 63.4758 223.758 63.5039C223.835 63.5109 223.919 63.5249 224.003 63.5389C223.961 63.6019 223.919 63.665 223.877 63.714L223.87 63.728ZM224.437 63.1676C224.536 63.3427 224.816 63.4338 225.075 63.5249C225.215 63.5739 225.439 63.651 225.481 63.7C225.481 63.714 225.467 63.728 225.432 63.749C225.271 63.8191 224.872 63.749 224.501 63.5039C224.444 63.4688 224.388 63.4408 224.332 63.4128C224.374 63.3357 224.409 63.2517 224.437 63.1676ZM221.083 64.1763C220.908 64.0292 220.866 63.8751 220.88 63.777C220.88 63.742 220.901 63.714 220.915 63.714C220.922 63.714 220.936 63.714 220.95 63.714C220.964 63.714 220.985 63.735 221.006 63.749C221.3 64.0012 221.349 64.0012 221.692 63.9171C221.699 63.9171 221.706 63.9171 221.713 63.9171C221.755 63.9872 221.79 64.0572 221.825 64.1343C221.566 64.3515 221.384 64.4215 221.083 64.1763ZM221.391 62.7543C221.559 62.7823 221.587 62.8804 221.594 62.9785C221.594 63.0415 221.622 63.0906 221.664 63.1326C221.755 63.2236 221.916 63.2166 222.084 63.2096C222.168 63.2096 222.322 63.2026 222.35 63.2237C222.35 63.2237 222.35 63.2237 222.35 63.2377C222.343 63.4478 222.259 63.5669 221.811 63.672C221.741 63.5879 221.664 63.5179 221.58 63.4688C221.433 63.3848 221.293 63.1396 221.328 62.9224C221.335 62.8594 221.363 62.8034 221.398 62.7613L221.391 62.7543ZM220.516 66.9363C220.53 66.9853 220.544 67.0274 220.551 67.0624C220.404 66.9083 220.158 66.579 220.039 66.3479C219.997 66.2568 219.976 66.1798 219.99 66.1027C220.2 66.2988 220.39 66.551 220.509 66.9363H220.516ZM216.349 59.0977C216.272 58.9366 216.111 58.8245 215.928 58.8105C215.767 58.7965 215.62 58.8595 215.543 58.9786C215.522 59.0136 215.494 59.0697 215.487 59.1467C215.312 59.0136 215.109 58.7825 215.228 58.4953C215.27 58.3972 215.326 58.3412 215.403 58.3202C215.613 58.2571 215.942 58.4532 216.055 58.5303C216.09 58.5583 216.139 58.5583 216.181 58.5303C216.223 58.5093 216.244 58.4603 216.237 58.4182C216.209 58.2361 216.055 57.3254 215.837 57.0873C215.823 57.0733 215.809 57.0593 215.795 57.0452C215.809 56.5409 215.466 56.0716 215.207 55.7213C215.13 55.6162 215.067 55.5252 215.025 55.4551C214.864 55.1819 214.661 54.9788 214.472 54.8877C214.416 54.7546 214.346 54.6215 214.248 54.4954C213.982 54.1452 213.834 53.956 213.659 53.9701C213.659 53.9701 213.652 53.9701 213.645 53.9701C213.596 53.9 213.533 53.8229 213.47 53.7459C213.253 53.5007 212.945 53.2345 212.441 53.2275C212.392 53.0034 212.273 52.7932 212.091 52.7232C211.965 52.6741 211.839 52.7021 211.761 52.8002C211.663 52.9123 211.649 53.0944 211.726 53.2415C211.768 53.3256 211.909 53.5077 212.252 53.4657C212.252 53.5217 212.252 53.5708 212.231 53.6198C212.203 53.7179 212.161 53.7039 212.126 53.6969C211.93 53.6478 211.684 53.3886 211.572 53.1154C211.523 52.9964 211.46 52.7582 211.572 52.5691C211.621 52.492 211.628 52.4079 211.593 52.3309C211.474 52.0157 210.739 51.7775 209.724 51.4763C209.422 51.3852 209.142 51.3011 208.953 51.2311C208.792 51.1681 208.68 51.1821 208.61 51.2661C208.512 51.3922 208.596 51.6234 208.848 51.9596C209.107 52.3099 209.653 52.8563 210.032 52.7092C210.354 52.5831 210.522 52.4149 210.515 52.2328C210.508 52.0437 210.312 51.8966 209.941 51.7915C209.878 51.7775 209.822 51.8125 209.801 51.8686C209.787 51.9316 209.822 51.9876 209.878 52.0087C210.193 52.0927 210.284 52.1908 210.284 52.2398C210.284 52.2959 210.186 52.4009 209.948 52.492C209.85 52.527 209.667 52.45 209.457 52.2748C209.093 51.9736 208.82 51.5533 208.799 51.4132C208.813 51.4132 208.841 51.4202 208.869 51.4342C209.065 51.5113 209.352 51.5954 209.653 51.6864C210.263 51.8686 211.285 52.1698 211.376 52.4079C211.376 52.4219 211.376 52.4289 211.376 52.45C211.25 52.6531 211.243 52.9193 211.362 53.1995C211.502 53.5497 211.796 53.851 212.07 53.921C212.175 53.949 212.266 53.921 212.336 53.872C212.252 54.0961 212.301 54.4534 212.609 54.7826C212.868 55.0628 212.812 55.266 212.77 55.4481C212.728 55.6092 212.665 55.8264 212.973 55.9314C213.239 56.0295 213.435 56.0645 213.54 55.9455C213.645 55.8264 213.568 55.6372 213.477 55.4691C213.309 55.1469 213.393 55.0418 213.68 54.8107C213.778 54.7336 213.834 54.6285 213.848 54.5094C213.848 54.4534 213.848 54.3904 213.827 54.3203C213.911 54.4184 214.017 54.5515 214.08 54.6355C214.129 54.7056 214.171 54.7686 214.213 54.8387C214.031 54.8667 213.708 55.0068 213.589 55.245C213.526 55.3711 213.498 55.5672 213.694 55.8054C214.017 56.1976 214.605 56.3728 214.815 56.2187C214.885 56.1626 214.934 56.0505 214.829 55.9104C214.752 55.8054 214.71 55.6302 214.654 55.4341C214.64 55.3781 214.626 55.315 214.605 55.252C214.682 55.329 214.759 55.4341 214.836 55.5602C214.885 55.6442 214.955 55.7353 215.032 55.8474C215.249 56.1416 215.529 56.5269 215.571 56.9121C215.263 56.7791 214.801 56.688 214.598 56.8281C214.514 56.8841 214.402 57.0242 214.549 57.3184C214.738 57.6897 214.997 57.8858 215.256 57.8508C215.473 57.8228 215.655 57.6407 215.746 57.3465C215.837 57.5356 215.921 57.8999 215.977 58.2011C215.809 58.11 215.564 58.0259 215.354 58.089C215.207 58.131 215.095 58.2361 215.032 58.3972C214.815 58.9296 215.326 59.3359 215.62 59.469C215.662 59.49 215.718 59.476 215.746 59.448C215.781 59.4129 215.788 59.3639 215.767 59.3149C215.718 59.2168 215.704 59.1327 215.739 59.0837C215.767 59.0347 215.837 59.0136 215.921 59.0207C216.005 59.0207 216.104 59.0697 216.153 59.1748C216.307 59.504 216.195 60.5758 215.991 61.3043C215.907 61.5985 215.837 61.6825 215.795 61.7036C215.732 61.7316 215.592 61.6545 215.438 61.5635C215.375 61.5284 215.305 61.4864 215.228 61.4514C215.172 61.4234 215.102 61.4514 215.074 61.5004C215.046 61.5565 215.074 61.6265 215.123 61.6545C215.2 61.6896 215.263 61.7316 215.326 61.7666C215.424 61.8227 215.508 61.8647 215.585 61.8997C215.69 61.9417 215.788 61.9557 215.879 61.9137C216.019 61.8577 216.118 61.6966 216.209 61.3673C216.398 60.6808 216.552 59.504 216.356 59.0767L216.349 59.0977ZM211.909 53.1575C211.874 53.0874 211.881 53.0104 211.909 52.9683C211.916 52.9613 211.937 52.9333 211.993 52.9543C212.084 52.9894 212.154 53.1154 212.189 53.2555C212.049 53.2696 211.944 53.2345 211.895 53.1505L211.909 53.1575ZM212.63 53.6969C212.63 53.6969 212.588 53.6828 212.567 53.6828C212.511 53.6828 212.462 53.6969 212.42 53.7319C212.42 53.7249 212.42 53.7179 212.427 53.7039C212.448 53.6408 212.455 53.5568 212.455 53.4727C212.847 53.4867 213.085 53.6899 213.281 53.914C213.344 53.9841 213.4 54.0541 213.442 54.1102C213.414 54.1452 213.393 54.1872 213.365 54.2222C213.316 54.3063 213.26 54.3413 213.183 54.3343C213.064 54.3203 212.903 54.1942 212.812 53.928C212.763 53.7739 212.686 53.7179 212.623 53.6899L212.63 53.6969ZM213.26 55.5812C213.33 55.7143 213.344 55.7773 213.344 55.8054C213.316 55.8054 213.232 55.8054 213.029 55.7283C212.924 55.6933 212.924 55.6863 212.966 55.5111C213.022 55.308 213.099 54.9998 212.756 54.6285C212.49 54.3413 212.504 54.0821 212.518 54.0121C212.525 53.956 212.546 53.921 212.56 53.907C212.567 53.921 212.588 53.942 212.609 53.9981C212.714 54.3203 212.938 54.5375 213.169 54.5585C213.337 54.5725 213.484 54.4884 213.568 54.3273C213.596 54.4044 213.603 54.4604 213.603 54.5024C213.603 54.5585 213.575 54.6005 213.519 54.6425C213.218 54.8807 213.008 55.1049 213.253 55.5812H213.26ZM214.626 56.0575C214.5 56.0856 214.101 55.9875 213.848 55.6723C213.701 55.4971 213.757 55.3851 213.771 55.35C213.855 55.1749 214.157 55.0628 214.255 55.0628C214.269 55.0628 214.283 55.0628 214.29 55.0628C214.346 55.2099 214.381 55.357 214.416 55.4971C214.472 55.7143 214.521 55.9034 214.626 56.0505V56.0575ZM215.214 57.6407C215.053 57.6617 214.878 57.5076 214.738 57.2274C214.71 57.1643 214.661 57.0593 214.71 57.0242C214.822 56.9472 215.172 57.0172 215.417 57.1083C215.466 57.1293 215.508 57.1433 215.543 57.1643C215.543 57.1643 215.543 57.1783 215.543 57.1853C215.487 57.4445 215.361 57.6126 215.214 57.6337V57.6407ZM214.276 56.66C214.045 56.4218 213.568 56.3307 213.344 56.4919C213.274 56.5409 213.127 56.695 213.288 57.0102C213.421 57.2624 213.554 57.4165 213.68 57.4726C213.722 57.4866 213.771 57.4936 213.813 57.4866C213.89 57.4725 214.017 57.4165 214.066 57.1643C214.08 57.0803 214.136 57.0522 214.213 57.0172C214.269 56.9962 214.346 56.9612 214.367 56.8771C214.381 56.7931 214.332 56.723 214.276 56.667V56.66ZM213.848 57.1223C213.827 57.2274 213.792 57.2624 213.785 57.2624C213.757 57.2624 213.652 57.2064 213.491 56.9051C213.435 56.7931 213.428 56.716 213.477 56.674C213.561 56.6179 213.75 56.6249 213.919 56.688C213.996 56.716 214.066 56.758 214.115 56.8141C214.031 56.8491 213.89 56.9262 213.848 57.1223ZM197.503 69.4861C197.573 69.2199 197.657 68.9117 197.223 68.7856C197.139 68.7646 197.076 68.7436 197.019 68.7226C196.739 68.6385 196.648 68.6175 196.508 68.8136C196.466 68.7646 196.41 68.7226 196.361 68.7016C196.284 68.6735 196.214 68.6805 196.165 68.7226C196.109 68.7646 196.088 68.8347 196.109 68.9047C196.137 69.0028 196.242 69.0868 196.361 69.1079C196.375 69.1079 196.389 69.1079 196.403 69.1079C196.403 69.1989 196.354 69.283 196.235 69.353C196.109 69.4301 195.99 69.4301 195.885 69.353C195.717 69.2199 195.633 68.9187 195.696 68.6875C195.703 68.6525 195.696 68.6245 195.682 68.5965C195.661 68.5685 195.633 68.5474 195.605 68.5474C195.57 68.5474 195.227 68.5054 195.052 68.6946C194.989 68.7646 194.947 68.8627 194.911 68.9748C194.841 69.1709 194.778 69.304 194.645 69.325C194.442 69.367 194.015 69.0238 193.924 68.9117C193.924 68.8977 193.924 68.8907 193.91 68.8767C193.847 68.7576 193.602 68.8136 193.595 68.8206C193.406 68.8697 193.294 69.0098 193.294 69.2059C193.294 69.311 193.294 69.4021 193.28 69.4931C193.21 69.4861 193.133 69.4931 193.063 69.5352C192.846 69.6682 192.53 69.6893 192.411 69.5071C192.383 69.4651 192.334 69.4511 192.285 69.4651C192.236 69.4791 192.208 69.5211 192.208 69.5702C192.208 69.5702 192.208 69.6542 192.18 69.7523C192.152 69.7453 192.124 69.7453 192.096 69.7523C191.935 69.7733 191.83 69.9835 191.802 70.1166C191.767 70.2637 191.816 70.3267 191.865 70.3617C191.935 70.4038 192.012 70.3898 192.11 70.3127C192.152 70.2847 192.187 70.2497 192.215 70.2146C192.215 70.2847 192.215 70.3617 192.173 70.4248C192.061 70.6209 191.781 70.684 191.515 70.5719C191.417 70.5299 191.333 70.5299 191.263 70.5649C191.151 70.6209 191.116 70.747 191.081 70.8731C191.06 70.9572 191.032 71.0482 190.99 71.0903C190.941 71.1323 190.941 71.2023 190.99 71.2514C191.004 71.2654 191.018 71.2724 191.032 71.2794C191.074 71.2934 191.116 71.2864 191.151 71.2584C191.242 71.1743 191.277 71.0482 191.305 70.9361C191.319 70.8801 191.347 70.789 191.368 70.775C191.368 70.775 191.382 70.775 191.431 70.789C191.802 70.9432 192.208 70.8451 192.369 70.5439C192.481 70.3477 192.453 70.0956 192.369 69.9344C192.383 69.8924 192.397 69.8434 192.404 69.8013C192.628 69.9204 192.951 69.8784 193.182 69.7383C193.203 69.7243 193.224 69.7243 193.245 69.7243C193.217 69.8644 193.182 69.9484 193.14 69.9695C193.07 70.0115 193.028 70.1096 193.112 70.2427C193.224 70.4248 193.672 70.775 193.889 70.6419C194.008 70.5649 194.4 70.1936 194.386 69.9134C194.386 69.8154 194.33 69.7313 194.239 69.6893C194.022 69.5842 193.84 69.6823 193.721 69.8013C193.658 69.7243 193.581 69.6472 193.497 69.5912C193.511 69.4581 193.518 69.325 193.518 69.2129C193.518 69.1359 193.546 69.1008 193.574 69.0868C193.623 69.0518 193.693 69.0378 193.735 69.0378C193.847 69.1919 194.351 69.6262 194.694 69.5562C194.961 69.5001 195.059 69.2479 195.122 69.0588C195.15 68.9748 195.185 68.8907 195.22 68.8557C195.269 68.7996 195.374 68.7786 195.458 68.7786C195.423 69.0658 195.542 69.381 195.752 69.5422C195.927 69.6753 196.151 69.6823 196.354 69.5562C196.613 69.3951 196.634 69.1989 196.627 69.0938C196.627 69.0728 196.627 69.0588 196.62 69.0378C196.641 69.0238 196.655 69.0028 196.669 68.9818C196.716 68.9164 196.809 68.9047 196.949 68.9467C197.005 68.9677 197.076 68.9888 197.16 69.0098C197.37 69.0728 197.363 69.1429 197.286 69.4301C197.251 69.5562 197.216 69.7033 197.202 69.8644C197.202 69.9274 197.244 69.9835 197.307 69.9835C197.37 69.9835 197.426 69.9414 197.426 69.8784C197.433 69.7383 197.468 69.6052 197.503 69.4861ZM193.455 69.8224C193.532 69.8994 193.602 69.9905 193.63 70.0325C193.651 70.0675 193.686 70.0886 193.728 70.0815C193.77 70.0815 193.805 70.0605 193.826 70.0255C193.826 70.0185 193.966 69.7803 194.148 69.8714C194.169 69.8784 194.169 69.8854 194.169 69.9064C194.169 70.0465 193.903 70.3547 193.784 70.4318C193.693 70.4458 193.378 70.2286 193.308 70.1096C193.378 70.0465 193.42 69.9414 193.455 69.8224ZM192.761 69.2479C192.789 69.1989 192.846 69.1779 192.895 69.1919C192.916 69.1639 192.951 69.1008 192.972 69.0378C192.993 68.9748 193.056 68.9467 193.112 68.9607C193.168 68.9818 193.203 69.0448 193.189 69.1008C193.175 69.1569 193.105 69.346 192.972 69.4021C192.923 69.4231 192.874 69.4231 192.824 69.4021C192.824 69.4021 192.81 69.4021 192.803 69.3951C192.747 69.367 192.726 69.297 192.754 69.2409L192.761 69.2479ZM194.337 69.0168C194.302 68.9607 194.323 68.8907 194.379 68.8627C194.393 68.8557 194.428 68.8347 194.442 68.8206C194.442 68.7786 194.463 68.7296 194.505 68.7086C194.561 68.6805 194.631 68.7086 194.659 68.7576C194.736 68.9117 194.568 69.0098 194.498 69.0518C194.47 69.0728 194.428 69.0728 194.4 69.0588C194.379 69.0518 194.358 69.0308 194.344 69.0098L194.337 69.0168ZM199.422 77.2196C199.226 76.9184 198.448 76.6662 198.091 76.5962C198.028 76.5822 197.972 76.6242 197.958 76.6873C197.944 76.7503 197.986 76.8063 198.049 76.8203C198.483 76.8974 199.113 77.1566 199.233 77.3457C199.247 77.3667 199.247 77.3737 199.247 77.3737C199.226 77.4648 199.029 77.6539 198.875 77.8081C198.63 78.0532 198.378 78.3054 198.336 78.5226C198.329 78.5856 198.287 78.6346 198.21 78.6767C198.105 78.7327 197.979 78.7467 197.895 78.7467C197.972 78.6907 198.077 78.6276 198.119 78.6206C198.175 78.6206 198.231 78.5646 198.231 78.5086C198.231 78.3615 197.874 78.1863 197.692 78.1513C197.475 78.1163 197.314 78.2003 197.258 78.3965C197.181 78.6487 197.258 78.9219 197.314 79.139C197.349 79.2651 197.398 79.4402 197.363 79.4823C197.279 79.5803 197.055 79.7064 196.879 79.7905C196.886 79.6504 196.914 79.4893 196.97 79.4122C197.034 79.3141 197.005 79.2441 196.984 79.2161C196.949 79.167 196.879 79.118 196.711 79.153C196.578 79.181 196.354 79.2791 196.319 79.4612C196.312 79.5103 196.312 79.5803 196.305 79.6574V79.6714C196.242 79.6013 196.109 79.5593 195.899 79.5453C195.948 79.4472 195.927 79.3632 195.885 79.3071C195.759 79.118 195.332 79.104 195.178 79.181C195.094 79.2231 195.073 79.3071 195.094 79.3632C195.094 79.3842 195.094 79.4472 195.094 79.4963C195.094 79.6644 195.094 79.9446 195.283 80.1477C195.136 80.2248 195.024 80.3158 194.975 80.4629C194.968 80.491 194.954 80.519 194.947 80.547C194.918 80.6311 194.904 80.6731 194.89 80.6871C194.862 80.7011 194.778 80.7151 194.659 80.7221C194.68 80.7081 194.701 80.6871 194.715 80.6731C194.771 80.6101 194.792 80.554 194.771 80.498C194.764 80.477 194.729 80.4139 194.645 80.4069C194.589 80.4069 194.477 80.1547 194.435 80.0637C194.351 79.8745 194.288 79.7414 194.169 79.7274C194.078 79.7204 193.973 79.7765 193.882 79.8885C193.742 80.0567 193.693 80.2878 193.756 80.505C193.798 80.6521 193.847 80.7502 193.917 80.8202C193.742 80.8622 193.574 80.8832 193.441 80.8342C193.385 80.8132 193.315 80.8412 193.294 80.9043C193.273 80.9603 193.301 81.0233 193.357 81.0514C193.616 81.1494 193.952 81.0724 194.232 80.9603C194.323 80.9673 194.435 80.9673 194.568 80.9603H194.603C195.003 80.9323 195.073 80.9253 195.164 80.6241C195.171 80.603 195.178 80.575 195.185 80.547C195.213 80.4559 195.325 80.3859 195.465 80.3299C195.486 80.3439 195.5 80.3579 195.514 80.3719C195.668 80.519 195.724 80.54 196.067 80.505C196.501 80.4629 196.508 79.9516 196.515 79.6714C196.515 79.6083 196.515 79.5453 196.522 79.5103C196.522 79.5033 196.536 79.4752 196.585 79.4472C196.627 79.4192 196.676 79.3982 196.718 79.3912C196.627 79.6153 196.634 79.9446 196.634 79.9866C196.634 80.0216 196.655 80.0567 196.69 80.0777C196.725 80.0987 196.76 80.0987 196.795 80.0847C196.851 80.0567 197.349 79.8325 197.517 79.6434C197.629 79.5103 197.58 79.3211 197.517 79.097C197.461 78.8938 197.405 78.6697 197.461 78.4805C197.482 78.4175 197.51 78.4035 197.545 78.3965C197.643 78.3755 197.79 78.4385 197.888 78.4945C197.762 78.5646 197.615 78.6697 197.587 78.7677C197.566 78.8308 197.587 78.8938 197.636 78.9289C197.741 79.0199 198.035 79.0059 198.224 78.9289C198.406 78.8588 198.525 78.7327 198.553 78.5786C198.574 78.4315 198.826 78.1863 199.022 77.9902C199.233 77.78 199.415 77.5979 199.45 77.4508C199.464 77.4018 199.464 77.3317 199.408 77.2406L199.422 77.2196ZM194.211 80.7151C194.071 80.6871 194.036 80.6031 193.98 80.4349C193.931 80.2668 193.994 80.1337 194.036 80.0707C194.078 80.0076 194.12 79.9726 194.141 79.9586C194.169 80.0006 194.211 80.0917 194.239 80.1547C194.309 80.3158 194.386 80.484 194.491 80.568C194.421 80.6171 194.323 80.6661 194.211 80.7221V80.7151ZM195.598 80.0146C195.598 80.0146 195.549 80.0356 195.521 80.0426C195.521 80.0426 195.514 80.0356 195.507 80.0286C195.325 79.8885 195.325 79.6644 195.325 79.4893C195.325 79.4402 195.325 79.3982 195.325 79.3632C195.395 79.3492 195.528 79.3492 195.626 79.3842C195.682 79.4052 195.696 79.4262 195.696 79.4262C195.696 79.4262 195.696 79.4682 195.584 79.5663C195.549 79.5943 195.535 79.6504 195.556 79.6924C195.577 79.7344 195.619 79.7625 195.668 79.7625C195.822 79.7625 195.99 79.7624 196.081 79.7835C195.948 79.8815 195.773 79.9446 195.605 80.0076L195.598 80.0146ZM196.06 80.2598C195.822 80.2808 195.794 80.2878 195.717 80.2178C195.892 80.1547 196.067 80.0847 196.214 79.9726C196.249 79.9446 196.277 79.9236 196.298 79.8955C196.277 80.0917 196.221 80.2458 196.067 80.2598H196.06ZM224.094 66.572C224.094 66.572 224.038 66.53 224.024 66.495C223.898 66.0116 224.045 65.5773 224.423 65.3392C224.872 65.052 225.495 65.108 225.943 65.4723C225.978 65.5003 225.992 65.5563 225.978 65.6054C225.957 65.6544 225.915 65.6824 225.866 65.6754C225.103 65.6124 224.557 65.8996 224.234 66.516C224.213 66.558 224.171 66.579 224.122 66.579C224.115 66.579 224.101 66.579 224.094 66.572ZM225.453 65.4512C225.145 65.3462 224.809 65.3672 224.55 65.5283C224.339 65.6614 224.22 65.8785 224.213 66.1307C224.515 65.7314 224.935 65.5003 225.453 65.4442V65.4512Z" fill="url(#paint5_linear_1_2)"/>
<path d="M100.43 76.7911C100.045 77.5687 99.4986 78.2131 98.7772 78.7315C98.0629 79.2499 97.2015 79.6352 96.193 79.8943C95.1845 80.1535 94.071 80.2796 92.8454 80.2796H82.4665V57.6395H92.5933C94.8344 57.6395 96.5992 58.1648 97.8738 59.2226C99.1554 60.2803 99.7927 61.7024 99.7927 63.4886V63.5517C99.7927 64.1961 99.7157 64.7705 99.5616 65.2679C99.4075 65.7653 99.1974 66.2136 98.9383 66.6129C98.6792 67.0121 98.378 67.3624 98.0419 67.6636C97.6987 67.9648 97.3345 68.224 96.9424 68.4412C98.203 68.9385 99.1974 69.611 99.9258 70.4656C100.654 71.3202 101.011 72.4971 101.011 74.0031V74.0662C101.011 75.1029 100.822 76.0066 100.437 76.7841L100.43 76.7911ZM95.0445 64.3362C95.0445 63.5797 94.7713 63.0053 94.2321 62.606C93.6928 62.2067 92.9084 62.0106 91.893 62.0106H87.1447V66.795H91.5778C92.6423 66.795 93.4827 66.6059 94.106 66.2276C94.7293 65.8493 95.0445 65.2399 95.0445 64.3993V64.3362ZM96.263 73.3937C96.263 72.6372 95.9829 72.0417 95.4226 71.6004C94.8624 71.1591 93.9519 70.9349 92.7054 70.9349H87.1447V75.9155H92.8594C93.9239 75.9155 94.7573 75.7194 95.3596 75.3201C95.9619 74.9208 96.263 74.3043 96.263 73.4637V73.4007V73.3937Z" fill="#075090"/>
<path d="M108.119 80.2796V57.6395H112.931V75.9365H123.828V80.2796H108.119Z" fill="#075090"/>
<path d="M148.592 74.7539C148.143 75.9798 147.506 77.0095 146.673 77.8291C145.839 78.6487 144.831 79.2651 143.647 79.6714C142.464 80.0777 141.14 80.2809 139.683 80.2809C136.749 80.2809 134.438 79.4683 132.75 77.8431C131.062 76.218 130.222 73.7942 130.222 70.5649V57.6407H135.033V70.4389C135.033 72.2321 135.446 73.5771 136.28 74.4807C137.113 75.3844 138.269 75.8397 139.747 75.8397C141.224 75.8397 142.38 75.4054 143.213 74.5298C144.047 73.6541 144.46 72.3442 144.46 70.593V57.6337H149.271V70.4038C149.271 72.071 149.047 73.514 148.599 74.7469L148.592 74.7539Z" fill="#075090"/>
<defs>
<linearGradient id="paint0_linear_1_2" x1="29.9789" y1="38.5424" x2="1.11729" y2="38.5424" gradientUnits="userSpaceOnUse">
<stop stop-color="white"/>
<stop offset="0.59" stop-color="#FDFDFD"/>
<stop offset="0.8" stop-color="#F6F7FA"/>
<stop offset="0.95" stop-color="#EAEDF4"/>
<stop offset="1" stop-color="#E5E9F1"/>
</linearGradient>
<linearGradient id="paint1_linear_1_2" x1="33.2546" y1="38.5439" x2="62.7436" y2="38.5439" gradientUnits="userSpaceOnUse">
<stop stop-color="white"/>
<stop offset="0.59" stop-color="#FDFDFD"/>
<stop offset="0.8" stop-color="#F6F7FA"/>
<stop offset="0.95" stop-color="#EAEDF4"/>
<stop offset="1" stop-color="#E5E9F1"/>
</linearGradient>
<linearGradient id="paint2_linear_1_2" x1="65.1289" y1="37.7719" x2="30.5603" y2="45.1179" gradientUnits="userSpaceOnUse">
<stop stop-color="#E5E9F1"/>
<stop offset="0.05" stop-color="#EAEDF4"/>
<stop offset="0.2" stop-color="#F6F7FA"/>
<stop offset="0.41" stop-color="#FDFDFD"/>
<stop offset="1" stop-color="white"/>
</linearGradient>
<linearGradient id="paint3_linear_1_2" x1="21.0858" y1="39.795" x2="3.43914" y2="43.545" gradientUnits="userSpaceOnUse">
<stop stop-color="white"/>
<stop offset="0.59" stop-color="#FDFDFD"/>
<stop offset="0.8" stop-color="#F6F7FA"/>
<stop offset="0.95" stop-color="#EAEDF4"/>
<stop offset="1" stop-color="#E5E9F1"/>
</linearGradient>
<linearGradient id="paint4_linear_1_2" x1="191.703" y1="75.7915" x2="223.276" y2="63.6439" gradientUnits="userSpaceOnUse">
<stop stop-color="#D7D3D0"/>
<stop offset="0.06" stop-color="#C8C4C2"/>
<stop offset="0.18" stop-color="#A19EA0"/>
<stop offset="0.26" stop-color="#848186"/>
<stop offset="0.52" stop-color="#CED0D1"/>
<stop offset="0.61" stop-color="#C0C1C2"/>
<stop offset="0.77" stop-color="#9C9A9D"/>
<stop offset="0.88" stop-color="#817C80"/>
<stop offset="1" stop-color="#9FA1A4"/>
</linearGradient>
<linearGradient id="paint5_linear_1_2" x1="206.848" y1="84.8981" x2="210.542" y2="53.078" gradientUnits="userSpaceOnUse">
<stop stop-color="#949FC4"/>
<stop offset="1" stop-color="#065098"/>
</linearGradient>
</defs>
</svg>
