<svg width="64" height="81" viewBox="0 0 64 81" fill="none" xmlns="http://www.w3.org/2000/svg">
<path d="M63.7048 28.8256V28.8045C63.6627 27.2214 63.5087 25.6523 63.2495 24.1392V24.1042C63.2075 23.9081 63.1725 23.7049 63.1235 23.4527C63.1235 23.4527 63.0955 23.3266 63.0885 23.2916C63.0535 23.1165 63.0114 22.9344 62.9694 22.7592L62.9484 22.6752C62.9344 22.6051 62.9204 22.5351 62.8994 22.465C62.8714 22.3459 62.8434 22.2339 62.8153 22.1148L62.7943 22.0237C62.7593 21.8906 62.7313 21.7645 62.6963 21.6314C62.6823 21.5684 62.6613 21.4983 62.6403 21.4353L62.5842 21.2391C62.5562 21.1481 62.5352 21.057 62.5072 20.966C62.5072 20.9519 62.4792 20.8749 62.4792 20.8679C62.4792 20.8679 62.4582 20.7908 62.4512 20.7628C61.9259 18.9205 61.0995 17.0081 60 15.0818C57.892 11.4602 55.5809 9.15553 54.0122 7.86661C52.5345 6.65475 51.0918 5.81415 50.0483 5.56897C50.0063 5.56197 49.9713 5.54095 49.9362 5.51293C46.3295 2.22058 42.1556 1.73023 39.9845 1.73023C39.6134 1.73023 39.2492 1.74424 38.913 1.77226C38.913 1.77226 38.899 1.77226 38.892 1.77226C38.843 1.77226 38.794 1.75825 38.7519 1.72323C36.5529 0.16812 33.4434 0 32.2108 0C32.0638 0 31.9447 0 31.8607 0H31.8467C31.7556 0 31.6366 0 31.4965 0C30.2639 0 27.1475 0.16812 24.9554 1.72323C24.9134 1.75125 24.8644 1.77226 24.8153 1.77226C24.8153 1.77226 24.8013 1.77226 24.7943 1.77226C24.4582 1.74424 24.094 1.73023 23.7228 1.73023C21.5588 1.73023 17.3848 2.22058 13.7781 5.50593C13.7501 5.53395 13.7081 5.55496 13.6661 5.56197C12.6576 5.79313 11.1729 6.65475 9.70219 7.86661C8.13345 9.15553 5.82235 11.4532 3.71435 15.0888C2.63584 16.9731 1.81645 18.8785 1.2842 20.7488L1.22117 20.9309C1.22117 20.9449 1.21417 20.9589 1.20716 20.966C0.0936371 24.7487 -0.249525 28.9026 0.177677 33.3158C0.506833 36.6642 1.29821 40.1316 2.41874 43.0807C2.41874 43.0877 2.41874 43.0947 2.42574 43.1087C2.43274 43.1438 2.44675 43.1718 2.45376 43.1998C2.47477 43.2559 2.50978 43.3539 2.50978 43.3539C2.50978 43.3679 2.51679 43.3819 2.52379 43.396C2.59382 43.5921 2.61483 43.6411 2.66385 43.7532L2.71988 43.9003C3.99448 47.0666 7.66422 52.0471 13.631 58.7019C13.631 58.7089 13.8972 59.0031 14.0302 59.1432C14.0302 59.1432 14.3384 59.4794 14.4574 59.6195C14.4574 59.6195 14.7866 59.9768 14.8986 60.1099L15.3469 60.5932L15.7951 61.0836L16.2503 61.5739L16.7055 62.0643L17.1607 62.5476L17.6159 63.031L18.0712 63.5143L18.5264 63.9906L18.9816 64.467L19.4368 64.9363L19.885 65.4056L20.3892 65.924C21.5868 67.1569 22.8194 68.4108 24.045 69.6367L27.4276 72.964C27.4276 72.964 27.4976 73.0201 27.5396 73.0481V75.9832C27.5396 76.3194 27.7848 76.5926 28.0999 76.6487L29.1644 80.4524C29.2414 80.7396 29.5006 80.9357 29.8017 80.9357H34.0597C34.3539 80.9357 34.613 80.7396 34.697 80.4524L35.7545 76.6487C36.0837 76.5996 36.3358 76.3194 36.3358 75.9832V72.922C38.0796 71.2338 41.5533 67.8224 45.4681 63.6964C45.4681 63.6964 45.7903 63.3532 45.9514 63.1851L46.4556 62.6527C46.6097 62.4846 46.9458 62.1343 46.9458 62.1343C47.0999 61.9662 47.261 61.7981 47.415 61.63L47.4291 61.6089C47.5831 61.4408 47.7372 61.2727 47.8913 61.1116L47.9193 61.0766C48.0734 60.9084 48.2274 60.7403 48.3815 60.5722L48.4025 60.5512C48.5566 60.3831 48.7107 60.2149 48.8577 60.0538L48.8857 60.0258C49.0398 59.8577 49.1939 59.6896 49.348 59.5144L49.369 59.4934C49.523 59.3253 49.6771 59.1502 49.8382 58.9751L49.8522 58.9611C50.0063 58.7859 50.1603 58.6178 50.3144 58.4497L50.3284 58.4357C50.4825 58.2606 50.6366 58.0854 50.7906 57.9103C50.7906 57.9103 50.8047 57.8893 50.8117 57.8893C54.9576 53.21 57.941 49.3782 59.6709 46.4922C59.93 46.0508 60.1611 45.6305 60.3712 45.2383L60.4132 45.1542C60.4552 45.0772 60.4972 44.9931 60.5323 44.916C60.5323 44.909 60.6093 44.7479 60.6163 44.7409C60.6443 44.6919 60.6653 44.6358 60.6933 44.5798C60.7284 44.5098 60.7564 44.4397 60.7914 44.3626C60.8054 44.3346 60.8334 44.2646 60.8474 44.2436C60.8614 44.2155 60.9244 44.0684 60.9244 44.0684C60.9455 44.0124 60.9735 43.9634 60.9945 43.9003L61.0505 43.7602C61.0925 43.6551 61.1135 43.5991 61.1836 43.41C61.2046 43.3539 61.2326 43.2909 61.2606 43.1998C62.01 41.2524 63.7538 36.0127 63.7258 29.5681C63.7258 29.3369 63.7258 29.0988 63.7118 28.8396L63.7048 28.8256Z" fill="white"/>
<path d="M3.44801 42.8506C3.53905 43.1028 3.53905 43.0958 3.6371 43.327C4.7086 46.0239 7.53794 49.9047 10.9976 54.0376C15.1225 58.9972 20.0879 64.2159 23.9187 68.0686C25.3474 69.5117 26.643 70.8006 27.7425 71.8793C27.7425 71.8793 27.7495 71.8863 27.7565 71.8934C27.8406 71.9774 27.9176 72.0545 28.0016 72.1315H28.0437L31.7414 72.1455L35.2501 72.1595H35.4812C41.49 66.3874 54.166 53.6243 58.7952 45.9679C59.0473 45.5546 59.2714 45.1483 59.4675 44.77C59.4885 44.728 59.5096 44.693 59.5306 44.6509C59.5656 44.5879 59.5936 44.5248 59.6216 44.4618C59.6496 44.4057 59.6776 44.3567 59.6987 44.3007C59.7267 44.2516 59.7477 44.1956 59.7757 44.1466C59.8037 44.0835 59.8387 44.0135 59.8667 43.9504C59.8877 43.9084 59.9017 43.8734 59.9228 43.8313C59.9718 43.7263 60.0138 43.6212 60.0558 43.5231C60.0698 43.4951 60.0768 43.4671 60.0838 43.4461C60.1189 43.362 60.1399 43.32 60.1609 43.2639C60.2029 43.1378 60.2309 43.0398 60.2239 43.0328C62.2058 37.9822 63.9917 29.2679 61.4915 21.0441C61.4915 21.0441 55.4827 4.74346 31.9725 4.74346C10.9836 4.02895 2.31347 20.939 2.31347 20.939V21.3593L2.20842 21.2402C-0.172706 29.331 1.5291 37.8701 3.44801 42.8436C3.44801 42.8436 3.44801 42.8436 3.44801 42.8506Z" fill="white"/>
<mask id="mask0_6_95" style="mask-type:luminance" maskUnits="userSpaceOnUse" x="1" y="5" width="30" height="68">
<path d="M2.32065 20.9308V21.3511L2.2156 21.232C-0.165527 29.3228 1.53628 37.8619 3.45519 42.8354C3.45519 42.8354 3.45519 42.8354 3.45519 42.8424C3.54623 43.0946 3.54623 43.0876 3.64428 43.3188C4.71578 46.0157 7.54513 49.8965 11.0048 54.0294C15.1297 58.9889 20.0951 64.2077 23.9259 68.0604C25.3476 69.5034 26.6502 70.7924 27.7497 71.8641C27.8407 71.9482 27.9248 72.0393 28.0158 72.1233H30.0118C18.5964 47.2696 23.5407 13.3374 24.9694 5.16956C9.05084 7.82445 2.32765 20.9238 2.32765 20.9238" fill="white"/>
</mask>
<g mask="url(#mask0_6_95)">
<path d="M29.997 5.1763H-0.166279V72.1371H29.997V5.1763Z" fill="url(#paint0_linear_6_95)"/>
</g>
<mask id="mask1_6_95" style="mask-type:luminance" maskUnits="userSpaceOnUse" x="33" y="5" width="30" height="68">
<path d="M33.6663 72.1375H35.6202H35.6692C36.8178 71.0167 38.2184 69.6368 39.7521 68.0746C43.583 64.2219 48.5483 58.9962 52.6733 54.0436C56.1329 49.9107 58.9622 46.0229 60.0338 43.333C60.1248 43.1018 60.1248 43.1088 60.2228 42.8566C60.2228 42.8566 60.2228 42.8566 60.2228 42.8496C62.1417 37.8761 63.8435 29.337 61.4624 21.2462L61.3644 21.3653V20.945C61.3644 20.945 54.6412 7.84567 38.7227 5.19078C40.1513 13.3586 45.0957 47.2838 33.6803 72.1515" fill="white"/>
</mask>
<g mask="url(#mask1_6_95)">
<path d="M63.8297 5.17778H33.6664V72.1385H63.8297V5.17778Z" fill="url(#paint1_linear_6_95)"/>
</g>
<mask id="mask2_6_95" style="mask-type:luminance" maskUnits="userSpaceOnUse" x="36" y="9" width="27" height="63">
<path d="M51.2177 43.7541C46.2453 56.153 37.9044 69.0352 36.1325 71.7111C39.8023 68.1455 45.531 62.3664 50.5174 56.6994C51.2947 55.8097 52.0511 54.9201 52.7864 54.0375C56.085 50.1007 58.8023 46.388 59.9788 43.7121C60.0068 43.6491 60.0349 43.579 60.0629 43.516C60.1049 43.4179 60.1259 43.3619 60.1469 43.3128C60.1329 43.3478 60.1259 43.3619 60.1609 43.2568C60.1609 43.2568 60.2099 43.1587 60.322 42.8435C62.2409 37.8699 63.9427 29.3308 61.5616 21.2401L61.4565 20.9319C61.4565 20.9319 57.9829 14.158 50.1112 9.36661C51.7499 15.2858 55.7698 32.392 51.2177 43.7541Z" fill="white"/>
</mask>
<g mask="url(#mask2_6_95)">
<path d="M62.7407 3.70399L23.4543 12.0566L37.3336 77.3691L76.62 69.0165L62.7407 3.70399Z" fill="url(#paint2_linear_6_95)"/>
</g>
<mask id="mask3_6_95" style="mask-type:luminance" maskUnits="userSpaceOnUse" x="0" y="9" width="28" height="63">
<path d="M2.25728 20.9319L2.15223 21.2401C-0.228901 29.3309 1.47291 37.8699 3.39181 42.8435C3.39181 42.8435 3.39181 42.8435 3.39181 42.8505C3.48286 43.1027 3.48286 43.0957 3.5809 43.3268C4.65241 46.0238 7.48175 49.9045 10.9414 54.0375C12.0409 55.3614 13.2035 56.7064 14.394 58.0373C19.0933 63.2771 24.2337 68.4538 27.6163 71.7391C25.8865 69.1192 17.5035 56.202 12.5101 43.7541C7.95798 32.392 11.9779 15.2858 13.6167 9.36661C5.74493 14.158 2.27128 20.9319 2.27128 20.9319" fill="white"/>
</mask>
<g mask="url(#mask3_6_95)">
<path d="M26.3968 3.70345L-12.9101 12.0604L0.975032 77.4003L40.2819 69.0434L26.3968 3.70345Z" fill="url(#paint3_linear_6_95)"/>
</g>
<path d="M31.8535 0.988398C31.1252 0.967384 27.3714 0.939364 25.1653 2.80269C25.1653 2.80269 19.0304 1.80098 14.1701 6.48732C13.0146 6.48032 8.29434 9.16323 4.56157 15.5728C3.54609 17.3451 2.74771 19.1734 2.21546 21.0367C2.95081 20.063 5.78015 16.1892 11.768 16.7286C12.1882 16.4064 15.921 12.3435 23.6666 13.7515C24.7241 12.6447 28.611 11.4609 31.8535 11.4188C35.096 11.4609 38.9829 12.6447 40.0404 13.7515C47.786 12.3435 51.5188 16.3994 51.939 16.7286C57.9268 16.1822 60.7632 20.056 61.5055 21.0297C60.9733 19.1664 60.1609 17.3381 59.1454 15.5658C55.4127 9.15623 50.6994 6.46631 49.5369 6.48032C44.6766 1.80098 38.5417 2.79569 38.5417 2.79569C36.3356 0.932359 32.5888 0.960379 31.8535 0.981394" fill="#D51F2F"/>
<path d="M25.1653 2.80258C25.1653 2.80258 19.0304 1.80086 14.1701 6.48721C13.0146 6.4802 8.29434 9.16312 4.56157 15.5727C3.5531 17.345 2.74771 19.1733 2.21546 21.0366C2.95081 20.0629 5.78015 16.1891 11.768 16.7285C12.1812 16.4063 15.9069 12.3574 23.6246 13.7444C24.3669 7.52395 25.1653 2.79557 25.1653 2.79557" fill="#BF2029"/>
<path d="M11.768 16.7347C11.768 16.7347 11.775 16.7347 11.782 16.7277C12.8955 10.9065 14.1701 6.48639 14.1701 6.48639C13.0146 6.47938 8.29434 9.1623 4.56157 15.5719C3.54609 17.3441 2.74771 19.1724 2.21546 21.0358C2.95081 20.0621 5.78015 16.1883 11.768 16.7277" fill="#9F1D23"/>
<path d="M38.5418 2.80258C38.5418 2.80258 44.6768 1.80086 49.5371 6.48721C50.6926 6.4802 55.4128 9.16312 59.1456 15.5727C60.1611 17.345 60.9735 19.1733 61.5057 21.0366C60.7704 20.0629 57.927 16.1891 51.9392 16.7355C51.526 16.4133 47.8002 12.3644 40.0826 13.7514C39.3402 7.53095 38.5418 2.80258 38.5418 2.80258Z" fill="#BF2029"/>
<path d="M51.9389 16.7347C51.9389 16.7347 51.9318 16.7347 51.9248 16.7277C50.8113 10.9065 49.5367 6.48639 49.5367 6.48639C50.6923 6.47938 55.4125 9.1623 59.1453 15.5719C60.1607 17.3441 60.9731 19.1724 61.5054 21.0358C60.77 20.0621 57.9267 16.1883 51.9389 16.7347Z" fill="#9F1D23"/>
<path d="M31.9585 75.8088H31.8745H28.5409L28.5829 75.9209L29.7945 80.264H31.9585V75.8088Z" fill="#424143"/>
<path d="M31.8813 75.8088H31.9653H35.2989L35.2568 75.9209L34.0453 80.264H31.8813V75.8088Z" fill="#646566"/>
<path d="M35.6496 75.9838H28.2121C28.2121 75.9838 28.1981 75.9768 28.1981 75.9698V75.4935C28.1981 75.4935 28.1981 75.4795 28.2121 75.4795H35.6496C35.6496 75.4795 35.6636 75.4865 35.6636 75.4935V75.9698C35.6636 75.9698 35.6566 75.9838 35.6496 75.9838Z" fill="#646566"/>
<path d="M35.208 76.1102L35.2431 75.9841H28.5969L28.6389 76.1102H35.208Z" fill="#424143"/>
<path d="M52.4082 39.6214C52.3171 39.6214 48.5353 35.6636 40.9928 36.3571C40.5796 36.1049 37.7782 34.6268 31.8534 34.3046C26.3978 34.4167 23.1273 36.1049 22.7141 36.3571C15.1715 35.6636 11.3897 39.6214 11.2987 39.6214C6.76755 39.4953 3.72812 42.6756 3.45499 43.0468C3.54603 43.299 3.54603 43.292 3.64408 43.5232C6.48042 50.5772 21.4325 65.771 28.1137 72.2366H35.6002C42.2814 65.771 57.2335 50.5772 60.0698 43.5232C60.1608 43.292 60.1608 43.299 60.2589 43.0468C59.9928 42.6756 56.9463 39.4953 52.4152 39.6214" fill="#045093"/>
<path d="M40.9927 36.35C48.5352 35.6565 52.317 39.6144 52.4081 39.6144C56.9392 39.4883 59.9787 42.6685 60.2518 43.0398C60.1607 43.292 60.1607 43.285 60.0627 43.5162C57.2263 50.5702 42.2813 65.764 35.5931 72.2296H33.5411C38.7376 61.0637 40.6215 48.0414 40.9927 36.343V36.35Z" fill="#1C447F"/>
<path d="M52.4081 39.6211C56.9392 39.495 59.9787 42.6753 60.2518 43.0466C60.1608 43.2987 60.1608 43.2917 60.0627 43.5229C57.2264 50.5769 42.2813 65.7708 35.5931 72.2364C35.5931 72.2364 45.4888 57.736 51.1195 43.8241C51.6587 42.4932 52.0789 41.0782 52.4011 39.6141" fill="#1F396E"/>
<path d="M22.7141 36.35C15.1715 35.6565 11.3897 39.6144 11.2987 39.6144C6.76755 39.4883 3.72812 42.6685 3.45499 43.0398C3.54603 43.292 3.54603 43.285 3.64408 43.5162C6.48042 50.5702 21.4255 65.764 28.1137 72.2296H30.1656C24.9692 61.0637 23.0853 48.0414 22.7141 36.343V36.35Z" fill="#1C447F"/>
<path d="M11.2987 39.6211C6.76756 39.495 3.72812 42.6753 3.45499 43.0466C3.54603 43.2987 3.54603 43.2917 3.64408 43.5229C6.48042 50.5769 21.4255 65.7708 28.1137 72.2364C28.1137 72.2364 18.218 57.736 12.5873 43.8241C12.0481 42.4932 11.6279 41.0782 11.3057 39.6141" fill="#1F396E"/>
<path d="M15.3186 24.9528C15.3186 24.9528 15.3186 24.9247 15.3186 24.9037C15.2836 24.0841 15.0035 23.4747 14.4922 23.1525C13.918 22.7812 13.0776 22.7532 12.0761 23.0824C10.9766 23.4467 9.89107 23.846 8.81956 24.2733C8.97363 27.0753 9.12771 29.8843 9.28178 32.6863C10.0031 32.3991 10.3603 32.266 11.0886 31.9998C11.0326 30.9 11.0046 30.3536 10.9486 29.2538C11.3688 29.0997 11.5789 29.0297 11.9991 28.8826C12.6784 29.7652 13.0216 30.2135 13.6939 31.1242C14.5343 30.865 14.9545 30.7389 15.8019 30.5077C15.1506 29.6391 14.4992 28.7705 13.8339 27.9089C14.7654 27.2084 15.3747 26.1436 15.3186 24.9528ZM13.4418 25.5412C13.4418 25.5412 13.4418 25.5482 13.4418 25.5552C13.4768 26.3187 12.9865 26.9352 12.1321 27.2154C11.6209 27.3905 11.3688 27.4746 10.8645 27.6567C10.8155 26.676 10.7875 26.1856 10.7385 25.2049C11.2357 25.0298 11.4808 24.9387 11.9781 24.7706C12.8955 24.4624 13.4067 24.7356 13.4418 25.5342" fill="#045093"/>
<path d="M42.4074 20.5535C41.2659 23.2504 40.1383 25.9473 39.0388 28.6583C39.8022 28.7423 40.1803 28.7914 40.9437 28.8964C41.2168 28.2029 41.3499 27.8527 41.623 27.1592C42.8136 27.3413 43.4019 27.4394 44.5854 27.6776C44.8235 28.4621 44.9426 28.8544 45.1807 29.639C45.9581 29.8001 46.3433 29.8911 47.1136 30.0803C46.1752 27.0051 45.2087 23.9369 44.2143 20.8757C43.4929 20.7356 43.1287 20.6726 42.4074 20.5605M44.0602 25.9613C43.3318 25.8212 42.9677 25.7582 42.2393 25.6461C42.6315 24.6654 42.8276 24.1751 43.2198 23.2014C43.5559 24.3012 43.724 24.8545 44.0602 25.9613Z" fill="#045093"/>
<path d="M52.9966 27.4398C53.872 26.361 54.7614 25.2892 55.6648 24.2315C54.8454 23.9092 54.4392 23.7551 53.6129 23.4609C52.9756 24.3225 52.6534 24.7568 52.0161 25.6325C51.5819 24.5887 51.1337 23.538 50.6855 22.5012C49.8311 22.242 49.4039 22.123 48.5425 21.8988C49.3268 23.51 50.0972 25.1351 50.8536 26.7603C49.9291 27.9371 49.0117 29.128 48.1153 30.3258C48.9416 30.543 49.3478 30.655 50.1672 30.9002C50.8395 29.9545 51.1757 29.4852 51.848 28.5536C52.3172 29.6673 52.7865 30.7881 53.2417 31.9089C54.0681 32.2032 54.4813 32.3573 55.3007 32.6795C54.5513 30.9212 53.7809 29.177 52.9966 27.4327" fill="#045093"/>
<path d="M19.6261 27.9367C19.6051 27.2152 19.5911 26.851 19.5701 26.1295C20.6906 25.8983 21.8252 25.6951 22.9597 25.527C22.9457 24.8686 22.9387 24.5393 22.9247 23.8808C21.7902 24.049 20.6486 24.2521 19.5211 24.4833C19.5001 23.7828 19.4931 23.4395 19.4721 22.739C20.7677 22.4869 22.0563 22.2627 23.3589 22.0666C23.3449 21.4081 23.3379 21.0788 23.3239 20.4204C21.377 20.7146 19.4511 21.0788 17.5322 21.5202C17.6302 24.3432 17.7282 27.1662 17.8193 29.9892C18.9818 29.709 20.1584 29.4638 21.335 29.2607C21.6641 28.5392 21.8252 28.1819 22.1543 27.4674C21.1389 27.6355 20.6346 27.7266 19.6261 27.9367Z" fill="#045093"/>
<path d="M35.6213 19.8811C34.956 20.7707 34.3046 21.6604 33.6533 22.564C33.002 21.6323 32.3437 20.7147 31.6784 19.797C31.6714 19.797 31.6644 19.797 31.6574 19.797C30.9921 21.0439 30.3338 22.2978 29.6895 23.5517C29.6965 25.1488 29.7105 26.746 29.7175 28.3501C30.4598 28.3221 30.824 28.3081 31.5663 28.3011C31.5663 26.5428 31.5663 24.7916 31.5593 23.0333C32.2387 23.902 32.911 24.7706 33.5763 25.6532C33.5763 25.6602 33.5763 25.6672 33.5903 25.6742C33.6253 25.6742 33.6393 25.6742 33.6673 25.6742C34.3467 24.8126 35.026 23.951 35.7193 23.1034C35.7053 24.8686 35.6913 26.6269 35.6773 28.3922C36.4196 28.4342 36.7908 28.4552 37.5332 28.5182C37.5682 25.6882 37.6032 22.8512 37.6382 20.0212C36.8328 19.9511 36.4266 19.9231 35.6143 19.8811" fill="#045093"/>
<path d="M25.3619 28.679C26.8045 25.6949 28.2822 22.7318 29.809 19.7827C28.8705 19.8177 28.3943 19.8457 27.4558 19.9158C25.9501 22.9139 24.4864 25.9331 23.0648 28.9732C23.9822 28.8401 24.4374 28.7771 25.3549 28.672" fill="#D51F2F"/>
<defs>
<linearGradient id="paint0_linear_6_95" x1="29.9789" y1="38.5424" x2="1.11729" y2="38.5424" gradientUnits="userSpaceOnUse">
<stop stop-color="white"/>
<stop offset="0.59" stop-color="#FDFDFD"/>
<stop offset="0.8" stop-color="#F6F7FA"/>
<stop offset="0.95" stop-color="#EAEDF4"/>
<stop offset="1" stop-color="#E5E9F1"/>
</linearGradient>
<linearGradient id="paint1_linear_6_95" x1="33.2546" y1="38.5439" x2="62.7436" y2="38.5439" gradientUnits="userSpaceOnUse">
<stop stop-color="white"/>
<stop offset="0.59" stop-color="#FDFDFD"/>
<stop offset="0.8" stop-color="#F6F7FA"/>
<stop offset="0.95" stop-color="#EAEDF4"/>
<stop offset="1" stop-color="#E5E9F1"/>
</linearGradient>
<linearGradient id="paint2_linear_6_95" x1="65.1289" y1="37.7719" x2="30.5603" y2="45.118" gradientUnits="userSpaceOnUse">
<stop stop-color="#E5E9F1"/>
<stop offset="0.05" stop-color="#EAEDF4"/>
<stop offset="0.2" stop-color="#F6F7FA"/>
<stop offset="0.41" stop-color="#FDFDFD"/>
<stop offset="1" stop-color="white"/>
</linearGradient>
<linearGradient id="paint3_linear_6_95" x1="21.0858" y1="39.795" x2="3.43913" y2="43.545" gradientUnits="userSpaceOnUse">
<stop stop-color="white"/>
<stop offset="0.59" stop-color="#FDFDFD"/>
<stop offset="0.8" stop-color="#F6F7FA"/>
<stop offset="0.95" stop-color="#EAEDF4"/>
<stop offset="1" stop-color="#E5E9F1"/>
</linearGradient>
</defs>
</svg>
